<svg width="201" height="45" viewBox="0 0 201 45" fill="none" xmlns="http://www.w3.org/2000/svg">
<path d="M42.8456 4.19795C39.6097 2.4882 36.1498 1.24562 32.5325 0.538086C32.0882 1.44512 31.5692 2.6651 31.2114 3.63559C27.3661 2.98254 23.5562 2.98254 19.7816 3.63559C19.4238 2.6651 18.893 1.44512 18.4448 0.538086C14.8236 1.24562 11.3596 2.49276 8.12376 4.207C1.59694 15.3452 -0.172378 26.2067 0.712281 36.9139C5.04121 40.5647 9.23647 42.7824 13.3609 44.2336C14.3793 42.6508 15.2875 40.9683 16.0699 39.1951C14.5798 38.5557 13.1525 37.7666 11.804 36.8505C12.1617 36.5512 12.5117 36.2382 12.8498 35.9162C21.0751 40.2609 30.0122 40.2609 38.1392 35.9162C38.4813 36.2382 38.8312 36.5512 39.1851 36.8505C37.8325 37.7711 36.4014 38.5602 34.9112 39.1997C35.6937 40.9683 36.598 42.6554 37.6202 44.2381C41.7487 42.7869 45.9478 40.5692 50.2767 36.9139C51.3148 24.5015 48.5035 13.7397 42.8456 4.19795ZM17.1905 30.3291C14.7214 30.3291 12.6964 27.7259 12.6964 24.5559C12.6964 21.3859 14.6781 18.7782 17.1905 18.7782C19.703 18.7782 21.7278 21.3813 21.6846 24.5559C21.6885 27.7259 19.703 30.3291 17.1905 30.3291ZM33.7985 30.3291C31.3294 30.3291 29.3044 27.7259 29.3044 24.5559C29.3044 21.3859 31.2861 18.7782 33.7985 18.7782C36.3109 18.7782 38.3358 21.3813 38.2926 24.5559C38.2926 27.7259 36.3109 30.3291 33.7985 30.3291Z" fill="#F5F5F5"/>
<path d="M67.6748 11.6855H78.4084C80.9959 11.6855 83.1818 12.1526 84.9751 13.0824C86.7636 14.012 88.1047 15.309 88.9934 16.9689C89.8815 18.6287 90.3297 20.5289 90.3297 22.6695C90.3297 24.7647 89.8658 26.6649 88.9379 28.3655C88.0101 30.0707 86.5985 31.4177 84.6997 32.4108C82.8008 33.404 80.449 33.9028 77.6381 33.9028H67.6748V11.6855ZM77.5278 28.2567C79.2697 28.2567 80.6108 27.7533 81.5461 26.751C82.4822 25.7442 82.9502 24.3747 82.9502 22.6377C82.9502 21.0277 82.5329 19.7443 81.6996 18.7829C80.8664 17.8214 79.6041 17.3362 77.917 17.3362H74.5593V28.2567H77.5278Z" fill="#F5F5F5"/>
<path d="M106.399 33.876C104.913 33.4316 103.572 32.7876 102.381 31.9395V26.6698C103.281 27.4724 104.488 28.1346 106.002 28.6561C107.515 29.1731 108.978 29.4316 110.393 29.4316C111.054 29.4316 111.554 29.3318 111.891 29.1323C112.23 28.9328 112.399 28.6924 112.399 28.4158C112.399 28.0983 112.309 27.8353 112.124 27.6221C111.939 27.409 111.581 27.2321 111.051 27.0824L107.748 26.2253C105.856 25.7174 104.515 25.0144 103.718 24.112C102.919 23.214 102.522 22.0349 102.522 20.5746C102.522 19.3456 102.868 18.2799 103.568 17.3683C104.264 16.4568 105.255 15.7538 106.54 15.2595C107.827 14.7606 109.328 14.5112 111.054 14.5112C112.595 14.5112 114.007 14.7017 115.293 15.0826C116.579 15.4636 117.64 15.9488 118.486 16.5429V21.527C117.62 20.9329 116.629 20.4658 115.497 20.112C114.369 19.7628 113.209 19.5905 112.013 19.5905C110.287 19.5905 109.427 19.9306 109.427 20.6063C109.427 20.9238 109.56 21.1596 109.827 21.3184C110.095 21.4771 110.586 21.6404 111.298 21.8127L114.05 22.3841C115.847 22.7424 117.188 23.3728 118.068 24.2707C118.95 25.1687 119.389 26.4975 119.389 28.257C119.389 30.1844 118.662 31.7128 117.204 32.8465C115.745 33.9803 113.677 34.5472 110.995 34.5472C109.418 34.5427 107.885 34.3204 106.399 33.876Z" fill="#F5F5F5"/>
<path d="M125.886 33.2092C124.31 32.3203 123.118 31.114 122.324 29.5902C121.53 28.0664 121.129 26.3522 121.129 24.4474C121.129 22.5427 121.541 20.8375 122.367 19.3364C123.193 17.8353 124.404 16.6562 126 15.7991C127.596 14.9419 129.503 14.5156 131.725 14.5156C134.477 14.5156 136.762 15.1823 138.578 16.5156V22.325C137.937 21.8171 137.19 21.4044 136.337 21.087C135.484 20.7695 134.571 20.6107 133.596 20.6107C131.89 20.6107 130.557 20.969 129.594 21.6901C128.63 22.4112 128.147 23.3499 128.147 24.5154C128.147 25.6583 128.615 26.5925 129.551 27.3272C130.487 28.0574 131.843 28.4247 133.624 28.4247C134.54 28.4247 135.444 28.2705 136.337 27.9667C137.225 27.6583 137.992 27.2819 138.633 26.8374V32.4563C136.616 33.8532 134.277 34.5516 131.615 34.5516C129.374 34.5425 127.463 34.0981 125.886 33.2092Z" fill="#F5F5F5"/>
<path d="M145.443 33.2095C143.854 32.3206 142.644 31.1052 141.81 29.5588C140.976 28.0123 140.556 26.289 140.556 24.3842C140.556 22.4795 140.972 20.7788 141.81 19.2869C142.647 17.7948 143.85 16.6247 145.431 15.7767C147.007 14.9286 148.891 14.5068 151.073 14.5068C153.255 14.5068 155.138 14.9286 156.715 15.7767C158.292 16.6247 159.495 17.7857 160.321 19.2687C161.147 20.7517 161.559 22.4523 161.559 24.3797C161.559 26.2844 161.147 28.0078 160.321 29.5542C159.495 31.1007 158.288 32.3161 156.699 33.2049C155.111 34.0939 153.236 34.5383 151.069 34.5383C148.903 34.5383 147.027 34.0983 145.443 33.2095ZM153.806 27.5769C154.474 26.806 154.812 25.7856 154.812 24.5158C154.812 23.246 154.478 22.2346 153.806 21.4863C153.138 20.7335 152.225 20.3571 151.069 20.3571C149.894 20.3571 148.973 20.7335 148.301 21.4863C147.633 22.2392 147.299 23.246 147.299 24.5158C147.299 25.7856 147.633 26.806 148.301 27.5769C148.97 28.3479 149.894 28.7379 151.069 28.7379C152.225 28.7334 153.138 28.3479 153.806 27.5769Z" fill="#F5F5F5"/>
<path d="M178.096 15.6857V22.5427C177.397 22.0121 176.492 21.7491 175.372 21.7491C173.905 21.7491 172.773 22.2616 171.986 23.2865C171.196 24.3115 170.802 25.9078 170.802 28.0664V33.9076H164.06V15.3365H170.665V21.2412C171.031 19.0824 171.625 17.4907 172.442 16.4612C173.256 15.4363 174.31 14.9238 175.592 14.9238C176.563 14.9238 177.397 15.1778 178.096 15.6857Z" fill="#F5F5F5"/>
<path d="M200.5 11.0513V33.9081H193.756V29.7494C193.186 31.314 192.321 32.5068 191.158 33.323C189.994 34.1349 188.555 34.543 186.848 34.543C185.323 34.543 183.994 34.1167 182.857 33.2596C181.721 32.4024 180.845 31.2279 180.227 29.7358C179.614 28.2438 179.303 26.5568 179.303 24.6702C179.284 22.7246 179.61 20.9786 180.282 19.4321C180.951 17.8856 181.898 16.6794 183.117 15.8131C184.336 14.9469 185.728 14.5116 187.289 14.5116C190.501 14.5116 192.656 16.1215 193.756 19.3368V11.0513H200.5ZM192.75 27.4502C193.438 26.6792 193.78 25.677 193.78 24.4525C193.78 23.2688 193.446 22.3028 192.778 21.5636C192.109 20.8244 191.193 20.4525 190.041 20.4525C188.905 20.4525 187.997 20.8289 187.316 21.5817C186.636 22.3346 186.298 23.3096 186.298 24.5159C186.298 25.7223 186.636 26.7064 187.316 27.4683C187.997 28.2301 188.893 28.6111 190.014 28.6111C191.15 28.6066 192.062 28.2211 192.75 27.4502Z" fill="#F5F5F5"/>
<path d="M96.0117 17.313C97.8681 17.313 99.3736 15.7536 99.3736 13.8301C99.3736 11.9065 97.8681 10.3472 96.0117 10.3472C94.1547 10.3472 92.6499 11.9065 92.6499 13.8301C92.6499 15.7536 94.1547 17.313 96.0117 17.313Z" fill="#F5F5F5"/>
<path d="M92.647 19.7124C94.7068 20.7373 97.2628 20.7826 99.37 19.7124V34.007H92.647V19.7124Z" fill="#F5F5F5"/>
</svg>
