<svg width="181" height="89" viewBox="0 0 181 89" fill="none" xmlns="http://www.w3.org/2000/svg">
<g clip-path="url(#clip0_248_231)">
<path d="M23.0702 0.419188C23.0702 0.598735 22.751 0.758332 22.2323 0.838131C21.7535 0.89798 20.8358 1.13738 20.1775 1.37677C14.9906 3.09244 10.9009 7.22202 9.32487 12.3092C8.34733 15.4812 8.30743 16.1395 8.30743 28.8275C8.30743 37.8448 8.24759 40.8173 8.06804 40.9968C7.90844 41.1564 6.77131 41.2362 4.2776 41.2362H0.726562V46.8221H4.29755C7.03066 46.8221 7.90844 46.882 8.08799 47.0815C8.22764 47.2809 8.32738 50.3931 8.34733 57.4154L8.40718 67.47L11.4196 67.5299C13.7736 67.5698 14.4918 67.5299 14.6514 67.3104C14.831 67.1109 14.9108 64.1185 14.9307 56.9765L14.9906 46.9219L24.7659 46.8221L34.5412 46.7224V41.3359L24.8657 41.2761C19.559 41.2561 15.1302 41.1564 15.0504 41.0766C14.9507 40.9769 14.8908 35.6702 14.8908 29.2664C14.8908 17.0373 14.9307 16.5585 15.8484 13.8054C16.7661 11.0723 18.7212 8.6584 20.8159 7.62102C24.0677 6.04499 28.5164 5.94524 32.247 7.36167C34.4415 8.21951 36.5961 10.1945 37.7132 12.389L38.4913 13.9052L40.0074 13.9451C40.8453 13.965 42.182 13.985 42.9799 14.0049C44.7555 14.0448 45.0348 13.8653 44.8153 12.768C44.1769 9.53618 41.5635 5.74575 38.611 3.73083C36.4963 2.27451 33.8829 1.17727 31.7882 0.838131C31.3692 0.778282 30.9703 0.578785 30.9104 0.419188C30.7508 0.000244737 23.0702 0.000244737 23.0702 0.419188Z" fill="#F5F5F5"/>
<path d="M40.6257 16.3787C39.4886 16.6979 38.6706 17.1368 37.9724 17.7951C35.4787 20.1691 35.4787 24.2389 37.9524 26.4932C39.329 27.73 39.9873 27.9694 42.0222 27.9694C44.1568 27.9495 45.0346 27.6303 46.3114 26.3735C47.5482 25.1166 47.8874 24.2189 47.8874 22.184C47.8874 20.3287 47.7278 19.7701 46.7303 18.4335C45.8525 17.2565 43.4187 16.0595 41.9823 16.1193C41.7229 16.1193 41.1244 16.239 40.6257 16.3787ZM63.8671 29.0667C62.3908 29.2662 61.2536 29.6452 59.4582 30.4632C53.1341 33.4157 49.0046 40.7372 49.0046 49.0163C49.0046 52.9464 49.623 55.5598 51.4384 59.3303C52.4558 61.425 52.8548 62.0235 54.2114 63.4798C57.3834 66.8114 60.1764 68.2678 64.4256 68.7865C69.3133 69.3849 74.1411 67.7291 77.6323 64.2579C78.2707 63.6195 78.8293 63.2205 78.969 63.3003C79.348 63.5397 79.0288 71.9185 78.57 73.7539C78.1111 75.5095 77.6722 76.8461 77.2932 77.5444C75.2583 81.2749 72.3058 82.9108 67.5577 82.9308C63.5279 82.9308 60.3759 81.5143 58.3211 78.7613C56.8448 76.7863 56.2662 75.4097 56.0667 73.335C55.9869 72.5769 55.8273 71.8786 55.6877 71.7589C55.5281 71.6193 54.3511 71.5595 52.5755 71.5994L49.7028 71.6592L49.6429 72.3574C49.603 72.7365 49.7227 73.8138 49.9023 74.7514C50.7402 78.9009 51.9571 81.2949 54.4907 83.8484C55.4882 84.826 56.8448 85.9631 57.5031 86.3621C58.8397 87.1401 61.3334 88.1376 62.8297 88.4967C64.0466 88.776 70.8494 88.776 72.0863 88.4967C78.2707 87.0404 83.0187 82.3722 84.5748 76.2476C85.3927 73.0756 85.3927 73.0956 85.4526 51.5699C85.5124 36.8271 85.4725 30.5429 85.3129 30.2637C85.1134 29.8846 84.914 29.8647 82.3604 29.8647C80.4851 29.8647 79.5275 29.9445 79.3679 30.1041C79.2083 30.2637 79.1285 31.0616 79.1285 32.3783C79.1285 33.675 79.0487 34.473 78.9091 34.5728C78.7894 34.6526 78.2508 34.2336 77.6523 33.6152C75.797 31.6601 73.6623 30.3435 70.8893 29.4457C69.4729 28.9869 65.8022 28.7874 63.8671 29.0667ZM70.2509 35.3907C77.373 37.5453 80.7844 45.9441 77.9914 54.5025C77.0139 57.5149 74.8394 60.228 72.3457 61.5447C70.5502 62.5023 69.7123 62.6819 66.8595 62.6819C63.9868 62.6819 63.5479 62.6021 61.6726 61.6245C59.7175 60.627 57.6428 58.3927 56.6253 56.1982C56.366 55.5997 56.0667 54.9613 55.967 54.7818C55.8872 54.6022 55.6278 53.6646 55.4084 52.707C54.6304 49.5151 54.8698 45.7645 56.0268 42.6324C56.9844 40.039 59.2986 37.4056 61.7723 36.089C63.9269 34.9319 67.7373 34.6326 70.2509 35.3907ZM103.567 29.0467C101.392 29.4457 99.0583 30.8222 97.6019 32.5379C97.0633 33.1564 96.5446 33.5952 96.4648 33.5154C96.3651 33.4157 96.2853 32.5978 96.2454 31.6601L96.1855 29.9644L93.213 29.9046C91.1981 29.8647 90.1607 29.9245 89.9812 30.0841C89.5622 30.4233 89.5622 67.4099 89.9812 67.7491C90.1607 67.9087 91.1981 67.9685 93.213 67.9286L96.1855 67.8688L96.3052 56.0985C96.4249 43.8095 96.4848 42.7721 97.3825 40.2784C98.2204 37.9443 99.557 36.3882 101.472 35.5104C102.39 35.1114 102.889 35.0316 104.465 35.0316C106.799 35.0117 107.856 35.4306 109.053 36.8071C109.971 37.8445 110.29 38.4829 110.888 40.5377C111.267 41.8544 111.307 42.6324 111.427 54.9015L111.547 67.8688H117.731L117.851 56.0985C117.971 43.61 118.05 42.413 119.008 39.8594C119.786 37.7847 121.342 36.1089 123.177 35.3907C124.494 34.872 127.766 34.872 128.903 35.3907C130.22 35.9892 130.758 36.4281 131.457 37.5054C132.873 39.6998 132.853 39.4205 132.953 54.2032C132.993 63.0808 133.092 67.5496 133.232 67.7092C133.551 68.1082 139.037 68.0683 139.377 67.6693C139.556 67.4498 139.596 64.3576 139.536 53.9638C139.456 42.1337 139.396 40.3781 139.097 39.1413C138.1 35.0316 136.643 32.4182 134.589 30.9818C132.175 29.3061 130.998 28.9669 127.506 28.9869C125.192 28.9869 124.474 29.0667 123.337 29.4258C120.763 30.2637 118.669 31.5803 117.412 33.1963C116.295 34.6127 116.235 34.6725 115.936 34.5129C115.776 34.4132 115.297 33.8546 114.858 33.2761C113.582 31.5604 111.826 30.3435 109.352 29.4457C108.235 29.0268 104.844 28.8073 103.567 29.0467ZM157.132 29.0467C150.608 29.9644 145.202 34.6725 143.007 41.3357C141.032 47.3605 141.431 53.6846 144.085 58.8914C146.159 62.9412 148.833 65.6145 152.543 67.3102C154.419 68.168 155.017 68.3476 157.112 68.6668C159.466 69.0458 160.384 69.0458 162.738 68.6668C166.388 68.1082 168.922 66.8314 171.535 64.2579C172.154 63.6394 172.752 63.2005 172.872 63.2803C173.012 63.3601 173.091 64.2379 173.091 65.5746C173.091 67.3501 173.151 67.7491 173.411 67.8488C173.59 67.9087 174.967 67.9685 176.503 67.9685H179.276L179.475 67.4698C179.755 66.7516 179.735 30.7624 179.475 30.2637C179.276 29.9046 179.036 29.8647 176.423 29.8647C174.468 29.8647 173.49 29.9445 173.331 30.1041C173.171 30.2637 173.091 31.0816 173.091 32.498C173.091 34.3533 173.052 34.6526 172.772 34.6526C172.593 34.6526 172.274 34.4132 172.034 34.1339C170.757 32.518 167.266 30.3435 164.493 29.4657C163.057 29.0068 159.047 28.7874 157.132 29.0467ZM163.416 35.3907C166.269 36.2885 168.423 37.8645 169.959 40.1986C171.735 42.8519 172.274 44.8668 172.293 48.6173C172.293 51.8492 171.914 53.6048 170.717 56.0985C169.361 58.8914 167.186 60.9263 164.294 62.1233C163.117 62.6021 162.777 62.642 160.024 62.6619C156.753 62.6819 155.895 62.5023 153.84 61.3253C151.326 59.8889 149.192 56.9563 148.154 53.5449C145.84 45.8443 149.172 38.0041 155.815 35.5304C157.511 34.892 161.581 34.8122 163.416 35.3907ZM38.93 29.9046C38.8701 30.0442 38.8502 38.6026 38.8701 48.9166L38.93 67.6693L41.9224 67.7291C44.5558 67.769 44.9348 67.7491 45.1543 67.4299C45.3538 67.1705 45.4136 63.1606 45.4136 48.6971C45.4136 32.2387 45.3737 30.2637 45.0944 29.9844C44.8351 29.725 44.2565 29.6652 41.9025 29.6652C39.7878 29.6652 38.9898 29.725 38.93 29.9046ZM106.599 71.3001C106.38 71.5196 106.44 75.1504 106.659 75.1504C106.779 75.1504 106.859 74.8711 106.859 74.5519C106.859 74.133 107.038 73.7739 107.377 73.4547C107.756 73.0956 107.816 72.9559 107.617 72.9559C107.437 72.9559 107.198 72.8163 107.058 72.6567C106.859 72.4173 106.879 72.2577 107.138 71.8587C107.317 71.5794 107.557 71.3999 107.657 71.4597C107.776 71.5395 107.856 71.4797 107.856 71.3799C107.856 71.1405 106.819 71.0807 106.599 71.3001ZM114.898 71.4398C113.881 71.9983 113.641 72.3774 113.641 73.4148C113.641 74.2926 113.721 74.4721 114.38 75.0706C115.257 75.8686 116.474 76.0282 116.813 75.3698C117.013 75.0307 116.953 75.0107 116.135 75.1105C115.397 75.1903 115.158 75.1304 114.739 74.7314C114.021 74.0332 114.04 72.7165 114.799 72.0582C115.377 71.5395 116.215 71.4198 116.594 71.7989C116.714 71.9185 116.893 71.9784 116.973 71.8986C117.193 71.6792 116.375 71.1804 115.836 71.1804C115.557 71.2004 115.138 71.3201 114.898 71.4398ZM118.429 71.3001C118.429 71.3999 118.569 71.6393 118.729 71.8387C118.928 72.118 119.028 72.7365 119.028 73.7938C119.028 74.6716 119.108 75.3499 119.227 75.3499C119.467 75.3499 119.606 74.7514 119.686 73.1554C119.726 72.4372 119.826 71.6991 119.906 71.4996C120.045 71.2004 119.966 71.1605 119.247 71.1605C118.788 71.1605 118.429 71.2203 118.429 71.3001ZM122.499 71.4398C121.522 71.9784 121.422 72.1779 121.422 73.4547C121.422 74.6517 121.462 74.7314 122.1 75.2302C123.078 75.9683 123.935 75.9284 124.873 75.0706C125.531 74.4721 125.611 74.2926 125.611 73.4148C125.611 72.6367 125.512 72.3375 125.172 72.0382C124.115 71.1405 123.337 70.961 122.499 71.4398ZM124.414 71.9983C124.933 72.3574 125.013 72.5569 125.013 73.335C125.013 74.512 124.454 75.1504 123.417 75.1504C122.419 75.1504 121.921 74.5719 121.921 73.4547C121.921 72.7963 122.04 72.4771 122.419 72.0981C123.058 71.4797 123.676 71.4398 124.414 71.9983ZM127.048 71.3999C126.768 71.6792 126.709 75.2701 126.988 75.4297C127.088 75.4895 127.267 75.2701 127.387 74.9509C127.586 74.3524 128.005 74.133 128.005 74.6118C128.005 74.8711 128.783 75.6292 128.923 75.4895C128.963 75.4496 128.823 75.0506 128.604 74.5719L128.185 73.734L128.604 73.1554C129.122 72.4173 128.983 71.8587 128.205 71.4597C127.506 71.1006 127.347 71.1006 127.048 71.3999ZM128.265 72.7963C128.085 72.9958 127.826 73.1554 127.666 73.1554C127.407 73.1554 127.307 72.4372 127.526 71.8787C127.626 71.5994 127.706 71.6193 128.105 71.9983C128.544 72.4173 128.544 72.4771 128.265 72.7963ZM150.608 71.4996C150.149 71.7989 150.01 72.4572 150.309 72.8761C150.389 72.9759 150.788 73.2751 151.207 73.5345C151.825 73.9135 151.965 74.0931 151.905 74.532C151.825 75.1504 150.987 75.3898 150.708 74.8711C150.528 74.5519 150.149 74.6118 150.149 74.9509C150.149 75.29 150.788 75.7489 151.227 75.7489C151.825 75.7489 152.543 74.9509 152.543 74.2926C152.543 73.8936 152.344 73.6342 151.705 73.2153C151.227 72.916 150.808 72.6567 150.768 72.6168C150.728 72.5968 150.768 72.3375 150.828 72.0382C150.967 71.5196 151.067 71.4996 152.045 71.8587C152.424 71.9983 152.404 71.9784 152.005 71.5794C151.486 71.0807 151.207 71.0607 150.608 71.4996ZM170.558 71.4996C170.398 71.8188 170.378 72.7764 170.458 74.4921C170.498 75.2501 170.897 75.3898 170.897 74.6517C170.897 74.2926 171.097 74.0332 171.535 73.7539C172.752 73.0158 172.872 71.8787 171.755 71.3799C171.077 71.0607 170.737 71.1006 170.558 71.4996ZM172.194 72.4572C172.194 72.4572 171.994 72.6766 171.755 72.936L171.316 73.4148L171.077 72.916C170.917 72.537 170.917 72.2976 171.097 71.9584L171.336 71.5196L171.755 71.9784C171.994 72.2377 172.194 72.4572 172.194 72.4572ZM174.009 71.6592C173.351 72.2776 173.51 72.7165 174.687 73.4547C175.465 73.9534 175.605 74.2128 175.366 74.8312C175.206 75.2501 174.348 75.2302 174.109 74.7913C173.949 74.532 173.87 74.512 173.67 74.6916C173.471 74.891 173.53 75.0307 173.909 75.3499C174.528 75.8686 175.246 75.7888 175.705 75.1504C176.244 74.3923 176.004 73.6342 175.066 73.0956C174.209 72.6168 174.089 72.0781 174.747 71.6792C175.007 71.5196 175.146 71.5196 175.286 71.7589C175.386 71.9185 175.525 71.9784 175.605 71.8986C175.805 71.6991 175.286 71.1605 174.887 71.1605C174.707 71.1605 174.308 71.3799 174.009 71.6592ZM97.3027 71.8787C97.0633 72.1779 96.8837 72.6168 96.8837 72.8761C96.8837 73.1355 96.804 73.3549 96.7042 73.3549C96.5446 73.3549 95.8863 75.0706 95.8863 75.4696C95.8863 75.5494 96.1057 75.3698 96.385 75.0706C96.764 74.6716 97.0433 74.5519 97.7416 74.5519C98.4598 74.5519 98.6593 74.6317 98.7391 74.9509C98.8588 75.4097 99.2777 75.4895 99.2777 75.0506C99.2777 74.7514 98.8588 73.6941 98.36 72.7165C98.2004 72.4372 98.0807 72.0582 98.0807 71.8986C98.0807 71.34 97.7216 71.34 97.3027 71.8787ZM98.0807 73.2352C98.0807 73.7938 97.7416 74.0931 97.4423 73.7938C97.3027 73.6542 97.3226 73.4547 97.4623 73.1754C97.7815 72.6168 98.0807 72.6367 98.0807 73.2352ZM100.554 71.6592C100.475 71.8387 100.574 72.138 100.754 72.3375C101.153 72.7764 101.173 74.0133 100.774 74.3524C100.435 74.6317 100.375 75.3499 100.674 75.3499C100.794 75.3499 100.973 75.1304 101.073 74.8511C101.313 74.2128 101.572 74.2128 102.19 74.891C102.45 75.1703 102.729 75.3698 102.789 75.29C102.948 75.1304 102.689 74.3524 102.45 74.3524C102.131 74.3524 102.25 72.517 102.609 72.118C102.849 71.8587 102.869 71.6791 102.729 71.5395C102.569 71.3799 102.45 71.4398 102.29 71.739C102.031 72.2178 101.073 72.3175 101.073 71.8787C101.073 71.4398 100.694 71.2802 100.554 71.6592ZM110.469 72.2976C110.23 72.8163 109.891 73.5145 109.751 73.8138C109.412 74.4721 109.352 75.1504 109.652 75.1504C109.771 75.1504 109.911 75.0107 109.971 74.8511C110.15 74.3923 111.666 74.4522 112.105 74.9509C112.285 75.1703 112.524 75.3499 112.624 75.3499C112.784 75.3499 112.444 74.113 112.065 73.3948C111.966 73.2153 111.766 72.7764 111.646 72.4173C111.208 71.2602 110.948 71.2403 110.469 72.2976ZM111.307 73.1953C111.447 73.714 111.327 73.9534 110.928 73.9534C110.749 73.9534 110.649 73.734 110.649 73.3549C110.649 72.6567 111.148 72.537 111.307 73.1953ZM154.738 72.2577C154.478 72.8163 154.199 73.4347 154.079 73.6542C153.96 73.8736 153.82 74.3325 153.74 74.6916C153.601 75.29 153.621 75.3299 153.96 75.1304C154.159 75.0307 154.339 74.8511 154.339 74.7514C154.339 74.4123 156.074 74.512 156.214 74.8511C156.274 75.0107 156.453 75.1504 156.593 75.1504C156.912 75.1504 156.832 74.2926 156.434 73.6542C156.294 73.4347 156.134 73.0357 156.054 72.7564C155.995 72.4771 155.755 72.0382 155.556 71.7589L155.177 71.2802L154.738 72.2577ZM155.536 73.3549C155.536 73.7539 155.436 73.9534 155.237 73.9534C155.037 73.9534 154.937 73.7539 154.937 73.3549C154.937 72.9559 155.037 72.7564 155.237 72.7564C155.436 72.7564 155.536 72.9559 155.536 73.3549ZM177.161 71.6393C177.061 71.8786 177.121 72.0981 177.301 72.2377C177.78 72.6168 178.278 73.7539 178.278 74.4522C178.278 74.8312 178.358 75.1703 178.458 75.2302C178.677 75.3698 178.877 74.8711 178.877 74.1529C178.877 73.3549 179.495 72.1779 179.934 72.1579C180.134 72.1579 180.273 71.9983 180.273 71.7589C180.273 71.1405 179.755 71.2802 179.096 72.0981C178.498 72.8163 178.478 72.8362 178.199 72.4572C177.301 71.2004 177.321 71.2203 177.161 71.6393ZM90.7193 72.7963C90.3802 74.3724 90.3403 75.2302 90.5996 75.3499C90.7193 75.4097 90.819 75.0506 90.8589 74.4921C90.8988 73.9335 91.0185 73.5544 91.1582 73.5544C91.5771 73.5744 92.0958 74.0931 92.0958 74.4921C92.0958 74.7115 92.2355 75.0107 92.3951 75.1504C92.7941 75.4895 93.2928 75.0905 93.2928 74.4322C93.2928 74.0931 93.4524 73.8736 93.8115 73.7539C94.0908 73.6342 94.3501 73.5544 94.39 73.5544C94.4299 73.5544 94.4898 73.9734 94.5297 74.4921C94.5696 75.0307 94.6893 75.4297 94.789 75.3898C95.0484 75.31 94.9686 73.9534 94.6893 73.6741C94.5895 73.5744 94.4898 73.0357 94.4898 72.517C94.4898 71.8587 94.41 71.5595 94.2304 71.5595C93.9312 71.5595 93.2928 72.7764 93.2928 73.3549C93.2928 73.6741 93.1532 73.7539 92.6943 73.7539C92.3552 73.7539 92.0958 73.6542 92.0958 73.5145C92.0958 73.0557 91.3976 71.5595 91.1981 71.5595C91.0784 71.5595 90.8789 72.118 90.7193 72.7963ZM130.319 71.9983C130.379 72.2577 130.579 72.5968 130.738 72.7764C130.898 72.9759 131.077 73.6143 131.137 74.2327C131.237 75.2501 131.596 75.6491 131.596 74.7314C131.596 74.2527 132.314 72.6367 132.594 72.4572C132.913 72.2577 132.833 71.5595 132.494 71.5595C132.334 71.5595 132.195 71.719 132.195 71.9185C132.195 72.138 131.975 72.3973 131.676 72.517C131.217 72.7365 131.157 72.7165 130.978 72.1579C130.718 71.4398 130.1 71.3001 130.319 71.9983ZM140.314 72.9958C139.895 74.7315 139.875 75.4097 140.234 75.31C140.354 75.2501 140.494 74.8512 140.534 74.3923C140.574 73.9335 140.693 73.5544 140.793 73.5544C141.152 73.5544 141.731 74.2527 141.81 74.7514C141.93 75.709 142.668 75.2102 143.047 73.9135C143.147 73.6143 143.227 73.5943 143.666 73.7938C144.045 73.9734 144.164 74.1729 144.164 74.6716C144.164 75.0307 144.264 75.3898 144.364 75.4496C144.623 75.6092 144.623 74.0931 144.384 73.8337C144.264 73.734 144.164 73.2153 144.125 72.6766C144.085 72.138 143.965 71.6592 143.865 71.6193C143.606 71.5395 142.967 72.5769 142.967 73.0557C142.967 73.4347 142.429 73.9335 142.03 73.9534C141.89 73.9534 141.771 73.7739 141.771 73.5544C141.771 73.0756 141.032 71.5595 140.813 71.5595C140.713 71.5595 140.494 72.2178 140.314 72.9958ZM146.878 71.9983C146.698 72.2377 146.558 72.5968 146.558 72.7963C146.558 72.9958 146.479 73.1554 146.359 73.1554C146.259 73.1554 146.1 73.3948 146.04 73.6941C145.96 74.0133 145.76 74.4522 145.601 74.7115C145.401 75.0107 145.361 75.2302 145.501 75.3698C145.641 75.5095 145.82 75.4097 146.04 75.0706C146.319 74.6317 146.519 74.5519 147.257 74.5519C148.015 74.5519 148.174 74.6317 148.434 75.0905C148.693 75.5893 148.733 75.6092 148.873 75.2701C148.952 75.0506 148.893 74.6317 148.693 74.2327C148.214 73.2352 147.815 72.3175 147.676 71.8986C147.536 71.4398 147.237 71.4597 146.878 71.9983ZM147.755 73.2552C147.755 73.8138 147.257 74.133 146.918 73.7938C146.738 73.6143 146.778 73.4547 147.057 73.1554C147.536 72.6168 147.755 72.6567 147.755 73.2552ZM158.089 71.8188C157.95 72.3175 158.169 75.3499 158.349 75.2501C158.448 75.1703 158.528 74.911 158.528 74.6517C158.528 74.3923 158.588 74.133 158.688 74.0931C158.847 73.9734 159.725 74.6317 159.725 74.8711C159.725 75.0307 160.344 75.5294 160.583 75.5494C160.902 75.5494 160.683 75.1105 160.024 74.3724C159.645 73.9534 159.326 73.4746 159.326 73.2951C159.326 73.1355 159.605 72.7165 159.925 72.3973C160.264 72.0582 160.523 71.739 160.523 71.6792C160.523 71.4198 159.905 71.5794 159.805 71.8587C159.725 72.0183 159.566 72.1579 159.426 72.1579C159.286 72.1579 159.107 72.2976 159.047 72.4771C158.887 72.8761 158.528 72.6567 158.528 72.1579C158.528 71.7191 158.209 71.4597 158.089 71.8188ZM162.119 73.4347C162.119 75.2501 162.359 75.9484 162.618 74.891C162.817 74.0931 162.638 71.6991 162.379 71.5994C162.179 71.5395 162.119 71.9983 162.119 73.4347ZM167.146 71.7989C167.007 71.9385 166.907 72.2377 166.907 72.4971C166.907 72.7564 166.827 72.9559 166.708 72.9559C166.608 72.9559 166.428 73.315 166.309 73.7539C166.189 74.1729 166.009 74.5918 165.91 74.6517C165.65 74.8112 165.65 75.5494 165.91 75.5494C166.029 75.5494 166.209 75.3299 166.309 75.0506C166.468 74.6118 166.608 74.5519 167.506 74.5519C168.403 74.5519 168.543 74.6118 168.703 75.0706C168.822 75.3499 168.982 75.5095 169.102 75.4496C169.401 75.2701 169.361 75.0706 168.722 73.714C168.403 73.0158 168.084 72.2577 168.004 71.9983C167.865 71.5196 167.526 71.4198 167.146 71.7989ZM167.984 73.1355C168.184 73.4547 167.885 73.9534 167.506 73.9534C167.186 73.9534 166.907 73.5943 166.907 73.1355C166.907 72.8961 167.845 72.8961 167.984 73.1355ZM136.743 72.6168C136.224 72.9958 136.165 73.0158 135.825 72.6966C135.626 72.517 135.307 72.3574 135.107 72.3574C134.788 72.3574 134.808 72.4173 135.167 72.936C135.586 73.5345 135.706 73.9534 135.446 73.9534C135.347 73.9534 135.187 74.1729 135.047 74.4522C134.768 75.0506 134.968 75.0905 135.646 74.5519C136.085 74.1928 136.224 74.1729 136.584 74.3923C136.803 74.532 136.983 74.7115 136.983 74.7913C136.983 74.891 137.122 74.9509 137.282 74.9509C137.681 74.9509 137.661 74.7115 137.202 74.133C136.823 73.6143 136.863 73.1953 137.362 72.8163C137.581 72.6567 137.621 72.517 137.481 72.3973C137.362 72.2577 137.082 72.3375 136.743 72.6168ZM96.9835 78.0231C95.5671 78.6416 94.7292 80.2176 94.9686 81.7936C95.3476 84.1277 98.2603 85.604 99.8164 84.2474C100.315 83.8085 100.335 83.7487 100.016 83.609C99.8164 83.5492 99.4373 83.5692 99.158 83.7088C98.1805 84.1477 97.5221 83.9881 96.5845 83.0305C95.8065 82.2525 95.6868 82.033 95.6868 81.2949C95.6868 79.4396 97.2029 78.2825 99.0184 78.7214C99.9959 78.9807 100.195 78.9209 99.9959 78.4421C99.7565 77.7638 98.0807 77.5444 96.9835 78.0231ZM101.153 78.0431C100.993 78.462 101.233 78.7413 101.771 78.7413H102.25L102.31 81.5742C102.37 83.9482 102.41 84.427 102.669 84.427C102.909 84.427 102.988 83.9482 103.068 81.634L103.168 78.8411L103.766 78.7812C104.544 78.6815 104.804 78.4421 104.465 78.0431C104.125 77.6242 101.313 77.6042 101.153 78.0431ZM109.153 78.0231C108.255 78.462 107.956 78.7613 107.477 79.679C106.679 81.2749 107.138 83.0106 108.694 84.1277C110.13 85.1851 112.045 84.806 113.262 83.25C113.901 82.432 113.941 80.0979 113.342 79.2999C112.345 77.9832 110.43 77.4047 109.153 78.0231ZM111.527 78.8211C112.863 79.3797 113.462 81.3747 112.664 82.5916C112.165 83.3497 111.188 83.9282 110.41 83.9282C109.253 83.9282 107.856 82.452 107.856 81.235C107.856 80.6765 108.335 79.6391 108.794 79.1802C109.392 78.5817 110.569 78.4221 111.527 78.8211ZM124.714 78.063C124.275 78.5219 124.354 84.427 124.813 84.427C125.033 84.427 125.132 84.0878 125.212 82.9906C125.272 82.2126 125.372 81.4944 125.472 81.4146C125.551 81.3348 125.97 81.2151 126.429 81.1552C127.467 80.9956 127.526 80.6565 126.509 80.5767C125.492 80.4969 125.172 80.2176 125.252 79.4595C125.312 78.881 125.372 78.8411 126.21 78.7812C127.267 78.7014 127.566 78.482 127.207 78.0431C126.868 77.6242 125.152 77.6441 124.714 78.063ZM132.294 78.0431C130.898 78.7014 130.359 79.5992 130.359 81.235C130.359 82.6714 130.678 83.2899 131.875 84.1477C133.491 85.3247 135.845 84.5866 136.404 82.7113C136.763 81.5343 136.524 81.235 135.167 81.235C134.349 81.235 134.09 81.3148 134.09 81.5343C134.09 81.7338 134.329 81.8535 134.848 81.8934C135.546 81.9532 135.606 82.0131 135.546 82.4919C135.466 83.1103 134.389 83.9282 133.651 83.9282C132.454 83.9282 130.998 82.432 130.998 81.1951C130.998 80.3772 132.095 78.9209 132.893 78.7014C133.671 78.482 134.988 78.7014 135.127 79.0605C135.247 79.3797 136.185 79.4396 136.185 79.1204C136.185 78.5418 134.648 77.7439 133.551 77.7439C133.192 77.7638 132.634 77.8835 132.294 78.0431ZM143.706 77.8835C143.626 77.9433 143.566 79.4795 143.566 81.2749C143.566 84.028 143.606 84.5267 143.865 84.5267C144.085 84.5267 144.164 84.2674 144.164 83.4694C144.164 82.8709 144.224 82.3323 144.304 82.2724C144.444 82.1128 145.361 82.8909 145.361 83.1702C145.361 83.5492 146.259 84.5267 146.598 84.5267C147.097 84.5267 147.057 84.3073 146.259 83.1502C145.421 81.9532 145.401 81.6939 146.08 81.1951C146.738 80.7163 146.957 79.3797 146.499 78.6615C146.12 78.1029 144.065 77.5244 143.706 77.8835ZM145.721 78.9807C146.139 79.3997 146 80.2575 145.461 80.6166C144.544 81.2151 144.164 80.9557 144.164 79.659C144.164 79.2999 144.224 78.9408 144.304 78.881C144.524 78.6615 145.461 78.7214 145.721 78.9807ZM148.274 78.0431C148.015 78.3224 147.955 78.861 147.955 81.235C147.955 84.7262 147.975 84.7661 149.93 84.6863C150.947 84.6464 151.247 84.5666 151.247 84.3272C151.247 84.1078 150.987 84.008 150.309 83.9681C149.81 83.9282 149.272 83.7886 149.152 83.629C149.032 83.4893 148.952 82.8909 148.992 82.2924L149.052 81.235L150.149 81.1353C150.748 81.0754 151.247 80.9358 151.247 80.836C151.247 80.7163 150.748 80.5966 150.149 80.5368L149.052 80.4371L148.992 79.5992L148.932 78.7613L150.09 78.7014C151.087 78.6416 151.247 78.5817 151.247 78.2426C151.247 77.8835 151.087 77.8436 149.93 77.7838C148.912 77.7439 148.513 77.8037 148.274 78.0431ZM156.094 78.0431C155.735 78.2426 155.516 78.5618 155.436 79.0007C155.237 80.0181 155.596 80.6166 156.813 81.2949C157.411 81.654 158.01 82.0929 158.109 82.2924C158.389 82.7911 157.95 83.5692 157.271 83.8085C156.813 83.9681 156.653 83.9282 156.174 83.4694C155.137 82.4719 154.598 82.9308 155.556 84.008C156.054 84.5866 156.314 84.7262 156.912 84.7262C157.311 84.7262 157.85 84.5866 158.089 84.407C158.608 84.0479 159.127 83.1103 159.127 82.5517C159.127 81.9732 158.329 81.1353 157.212 80.5368C156.453 80.1378 156.214 79.8984 156.174 79.4795C156.094 78.8012 156.832 78.4421 157.65 78.7413C158.369 79.0206 158.528 79.0007 158.528 78.5817C158.528 77.8436 157.072 77.5244 156.094 78.0431ZM160.244 78.063C159.765 78.5219 159.785 83.9482 160.244 84.427C160.683 84.8659 163.216 84.7861 163.216 84.3272C163.216 84.1078 162.917 84.008 162.119 83.9282L161.022 83.8285V81.235L162.119 81.1353C162.718 81.0754 163.216 80.9358 163.216 80.836C163.216 80.7163 162.718 80.5966 162.119 80.5368L161.022 80.4371L160.962 79.5792L160.902 78.7413H161.999C163.157 78.7413 163.516 78.5219 163.117 78.0431C162.758 77.6242 160.663 77.6441 160.244 78.063ZM164.852 78.0032C164.533 78.2226 164.513 78.6017 164.553 81.3348C164.613 83.9282 164.653 84.427 164.912 84.427C165.132 84.427 165.231 84.1477 165.271 83.2699C165.331 82.2325 165.371 82.1527 165.69 82.3323C165.91 82.432 166.309 82.9308 166.588 83.4295C167.166 84.3871 167.785 84.8659 168.004 84.5068C168.084 84.407 167.825 83.8085 167.426 83.23C166.608 81.9931 166.548 81.6739 167.067 81.2949C167.905 80.6964 168.144 79.4994 167.585 78.6416C167.386 78.3224 166.967 78.1029 166.289 77.9633C165.092 77.704 165.251 77.7039 164.852 78.0032ZM166.907 79.2401C167.286 80.2376 166.329 81.3348 165.61 80.7363C165.311 80.4969 165.191 79.1204 165.451 78.881C165.511 78.8012 165.83 78.7413 166.149 78.7413C166.568 78.7413 166.767 78.861 166.907 79.2401ZM171.396 78.063C171.116 78.3423 171.077 78.8211 171.136 81.3747C171.176 83.7487 171.256 84.3871 171.495 84.5267C171.655 84.6464 172.373 84.7063 173.091 84.6863C174.149 84.6265 174.388 84.5666 174.448 84.2674C174.508 83.9881 174.368 83.9282 173.51 83.9282C172.293 83.9282 171.875 83.4894 172.034 82.3522C172.194 81.3148 172.413 81.1353 173.51 81.1353C174.229 81.1353 174.488 81.0555 174.488 80.836C174.488 80.6366 174.189 80.5368 173.351 80.4969C172.293 80.437 172.214 80.3972 172.074 79.8585C171.835 79.0206 172.154 78.7413 173.331 78.7413C174.029 78.7413 174.328 78.6615 174.428 78.4221C174.608 77.9433 174.129 77.7439 172.852 77.7439C172.074 77.7439 171.615 77.8436 171.396 78.063ZM176.543 78.1428C175.964 78.482 175.884 78.6416 175.884 79.3997C175.884 80.058 176.004 80.3772 176.343 80.6964C176.603 80.9358 176.902 81.1353 177.002 81.1353C177.101 81.1353 177.52 81.3547 177.939 81.634C178.837 82.2525 178.957 83.1103 178.238 83.609C177.62 84.0479 177.201 84.008 176.662 83.4295C176.084 82.831 175.685 82.7911 175.685 83.3298C175.685 83.9681 176.682 84.7262 177.5 84.7262C178.637 84.7262 179.475 83.8484 179.475 82.6714C179.475 81.8734 179.396 81.6939 178.737 81.1552C178.318 80.8161 177.839 80.5368 177.66 80.5368C177.48 80.5368 177.201 80.3772 177.022 80.1777C176.204 79.28 176.982 78.2825 178.099 78.7613C178.578 78.9408 178.757 78.9408 178.937 78.7613C179.116 78.5618 179.076 78.4221 178.697 78.1229C178.099 77.6441 177.361 77.6441 176.543 78.1428ZM91.3178 78.462C91.0983 78.7613 90.8988 79.1004 90.8988 79.26C90.8988 79.3997 90.7792 79.7588 90.6196 80.078C90.4799 80.3772 90.2006 80.9757 90.0211 81.3946C89.8615 81.7936 89.5822 82.432 89.4226 82.7911C89.243 83.1303 89.0635 83.6689 88.9837 83.9681C88.8839 84.427 88.9238 84.5267 89.2231 84.5267C89.4625 84.5068 89.7418 84.2075 90.0011 83.6689C90.3802 82.851 90.44 82.831 91.4375 82.7712C92.6145 82.7113 93.2928 82.9707 93.2928 83.5093C93.2928 83.6889 93.5123 84.0679 93.7915 84.3272C94.2304 84.7462 94.2903 84.7462 94.41 84.4469C94.4898 84.2674 94.41 83.8285 94.2304 83.4694C94.0708 83.1103 93.4923 81.7936 92.9736 80.5368C92.4549 79.28 91.9761 78.1628 91.8963 78.083C91.8165 77.9832 91.5572 78.1628 91.3178 78.462ZM92.2953 80.8959C92.5946 81.6739 92.3552 81.9732 91.4973 81.8934C90.839 81.8136 90.7592 81.1752 91.3178 80.457C91.7966 79.8585 91.8963 79.9184 92.2953 80.8959ZM105.402 78.083C105.223 78.2426 105.223 83.7886 105.382 84.2075C105.562 84.6664 106.001 84.5866 106.14 84.0679C106.36 83.2101 106.28 78.4421 106.021 78.1827C105.741 77.9035 105.582 77.8835 105.402 78.083ZM114.998 78.063C114.898 78.1428 114.838 79.6391 114.838 81.3747C114.838 84.008 114.878 84.5267 115.138 84.5267C115.537 84.5267 115.716 83.3697 115.577 81.7537C115.417 79.7388 115.616 79.6191 116.953 81.0355C119.826 84.0679 120.285 84.5267 120.444 84.5267C120.544 84.5267 120.624 83.0904 120.624 81.3348C120.624 78.2825 120.604 78.1428 120.225 78.1428C119.846 78.1428 119.826 78.2825 119.826 80.1378C119.826 82.5318 119.606 82.7911 118.589 81.6141C116.893 79.679 115.118 77.9234 114.998 78.063ZM128.743 78.083C128.664 78.1428 128.604 79.6391 128.604 81.3747C128.604 83.9282 128.664 84.5267 128.883 84.5267C129.322 84.5267 129.402 84.0479 129.402 81.235C129.402 78.2027 129.262 77.5444 128.743 78.083ZM137.721 78.083C137.641 78.1428 137.581 79.3398 137.581 80.7363V83.2699L138.319 83.9881C138.918 84.6065 139.177 84.7262 139.875 84.7262C140.873 84.7262 141.571 84.2474 142.05 83.25C142.289 82.7512 142.369 81.9931 142.369 80.3772C142.369 78.1428 142.229 77.684 141.671 78.1428C141.431 78.3423 141.372 78.9209 141.372 80.6765C141.372 82.831 141.352 82.9707 140.873 83.4295C140.115 84.2075 139.157 84.0679 138.678 83.1103C138.479 82.7313 138.379 81.9133 138.379 80.5568C138.379 78.2027 138.219 77.5843 137.721 78.083ZM169.301 81.235C169.301 84.028 169.341 84.5267 169.6 84.5267C169.86 84.5267 169.9 84.028 169.9 81.235C169.9 78.4421 169.86 77.9433 169.6 77.9433C169.341 77.9433 169.301 78.4421 169.301 81.235Z" fill="#F5F5F5"/>
</g>
<defs>
<clipPath id="clip0_248_231">
<rect width="180" height="88.776" fill="white" transform="translate(0.5)"/>
</clipPath>
</defs>
</svg>
