<svg width="201" height="41" viewBox="0 0 201 41" fill="none" xmlns="http://www.w3.org/2000/svg">
<path d="M177.833 28.4771C177.807 28.4827 177.78 28.4808 177.754 28.4846L177.89 28.4657C177.871 28.4676 177.852 28.4771 177.833 28.4809V28.4771ZM86.2629 34.9068C86.2683 35.3343 86.1859 35.7583 86.0206 36.1526C85.8554 36.5468 85.6108 36.9029 85.3022 37.1988C85.0039 37.5064 84.6459 37.7497 84.2501 37.9139C83.8544 38.0782 83.4292 38.1598 83.0008 38.1538H76.5389C75.2577 38.1735 73.986 37.931 72.8019 37.4413C71.6178 36.9515 70.5464 36.2248 69.6535 35.3058C67.7472 33.4053 66.8168 31.1189 66.8168 28.4411V15.4248C66.8168 14.5076 67.1326 13.7379 67.768 13.1119C68.4034 12.486 69.1788 12.1759 70.0941 12.1759C70.52 12.1696 70.9427 12.2512 71.3357 12.4155C71.7288 12.5798 72.0837 12.8233 72.3785 13.1309C73.0139 13.7663 73.3335 14.5303 73.3335 15.4229V20.1374H82.5091C83.3412 20.1374 84.056 20.4324 84.6517 21.0224C85.2474 21.6124 85.5443 22.3197 85.5443 23.148C85.5496 23.5443 85.4735 23.9374 85.3206 24.303C85.1677 24.6687 84.9413 24.999 84.6555 25.2736C84.3779 25.5583 84.0454 25.7836 83.678 25.9358C83.3106 26.0879 82.9161 26.1637 82.5185 26.1586H73.3335V28.4392C73.3335 29.3337 73.6455 30.094 74.2734 30.7199C74.9012 31.3459 75.6614 31.6579 76.5578 31.6579H82.9875C83.882 31.6579 84.6517 31.9794 85.289 32.6148C85.5976 32.9106 85.8421 33.2667 86.0074 33.661C86.1726 34.0553 86.2551 34.4793 86.2497 34.9068H86.2629ZM161.748 34.9068C161.753 35.3341 161.671 35.7581 161.506 36.1523C161.341 36.5466 161.097 36.9028 160.789 37.1988C160.491 37.5062 160.133 37.7495 159.738 37.9137C159.342 38.0779 158.918 38.1596 158.489 38.1538H155.562C154.28 38.1738 153.008 37.9314 151.824 37.4417C150.64 36.9519 149.568 36.225 148.675 35.3058C147.754 34.418 147.026 33.3506 146.535 32.1698C146.043 30.989 145.8 29.7199 145.819 28.4411V15.4248C145.819 14.5076 146.135 13.7379 146.77 13.1119C147.406 12.486 148.179 12.1759 149.096 12.1759C149.522 12.1696 149.945 12.2512 150.338 12.4155C150.731 12.5798 151.086 12.8233 151.381 13.1309C151.688 13.4274 151.931 13.7838 152.095 14.178C152.259 14.5722 152.34 14.9959 152.334 15.4229V20.1374H157.994C158.392 20.1317 158.787 20.2073 159.155 20.3594C159.523 20.5116 159.857 20.7372 160.135 21.0224C160.73 21.6124 161.027 22.3197 161.027 23.148C161.033 23.5443 160.956 23.9374 160.804 24.303C160.651 24.6687 160.424 24.999 160.138 25.2736C159.861 25.5583 159.528 25.7836 159.161 25.9358C158.794 26.0879 158.399 26.1637 158.001 26.1586H152.334V28.4392C152.334 29.3337 152.646 30.094 153.274 30.7199C153.902 31.3459 154.662 31.6579 155.558 31.6579H158.489C159.384 31.6579 160.154 31.9794 160.791 32.6148C161.099 32.9108 161.343 33.267 161.508 33.6612C161.673 34.0555 161.755 34.4794 161.75 34.9068H161.748ZM144.728 34.9068C144.728 35.7956 144.406 36.5615 143.769 37.1988C143.471 37.5064 143.113 37.7499 142.717 37.9141C142.321 38.0783 141.896 38.1599 141.468 38.1538H138.54C135.855 38.1538 133.561 37.2045 131.657 35.3058C130.736 34.4183 130.006 33.3511 129.515 32.1702C129.023 30.9894 128.779 29.7202 128.797 28.4411V15.4248C128.788 14.9945 128.867 14.5669 129.031 14.1689C129.195 13.7709 129.439 13.411 129.749 13.1119C130.384 12.4879 131.159 12.1759 132.075 12.1759C132.501 12.1696 132.923 12.2512 133.316 12.4155C133.709 12.5798 134.064 12.8233 134.359 13.1309C134.994 13.7663 135.314 14.5303 135.314 15.4229V20.1374H140.972C141.804 20.1374 142.519 20.4324 143.115 21.0224C143.402 21.2961 143.629 21.6262 143.783 21.992C143.936 22.3578 144.012 22.7514 144.006 23.148C144.011 23.5443 143.935 23.9374 143.782 24.303C143.629 24.6687 143.403 24.999 143.117 25.2736C142.525 25.8409 141.793 26.1586 140.984 26.1586H135.295V28.4392C135.295 29.3337 135.607 30.094 136.235 30.7199C136.863 31.3459 137.623 31.6579 138.519 31.6579H141.451C142.345 31.6579 143.115 31.9794 143.752 32.6148C144.06 32.9108 144.305 33.267 144.469 33.6612C144.634 34.0555 144.717 34.4794 144.711 34.9068H144.728ZM117.689 29.0671C117.689 31.5728 116.8 33.7116 115.015 35.4892C114.181 36.3496 113.179 37.0299 112.071 37.4882C110.964 37.9464 109.774 38.173 108.576 38.1538C106.28 38.1538 104.259 37.3974 102.511 35.8277C100.874 37.3456 98.7167 38.1775 96.4843 38.1519C95.2857 38.1702 94.0961 37.9433 92.9884 37.4851C91.8808 37.0269 90.8785 36.347 90.0432 35.4874C89.1818 34.6569 88.5001 33.6584 88.0405 32.5537C87.5808 31.4489 87.353 30.2616 87.3711 29.0652V22.7206C87.3615 22.3174 87.4363 21.9167 87.5906 21.5441C87.745 21.1716 87.9755 20.8354 88.2675 20.5572C88.8632 19.9899 89.5818 19.6797 90.4176 19.6797C90.8168 19.6729 91.2131 19.7471 91.5827 19.898C91.9523 20.0488 92.2874 20.2731 92.5678 20.5572C93.1654 21.1245 93.4642 21.8809 93.4642 22.7225V29.0709C93.4571 29.4671 93.5315 29.8606 93.6828 30.2269C93.8341 30.5931 94.059 30.9245 94.3435 31.2002C94.6225 31.4824 94.9556 31.7054 95.3228 31.8558C95.69 32.0063 96.0837 32.0811 96.4805 32.0758C97.2936 32.0758 97.9934 31.7865 98.5607 31.2002C98.8449 30.9243 99.0695 30.5929 99.2204 30.2266C99.3713 29.8603 99.4455 29.467 99.4381 29.0709V22.7546C99.4381 21.9225 99.7407 21.2001 100.336 20.5912C100.619 20.2961 100.96 20.0627 101.338 19.9055C101.715 19.7483 102.121 19.6708 102.53 19.6778C102.931 19.6724 103.33 19.749 103.7 19.9028C104.071 20.0566 104.406 20.2844 104.686 20.5723C105.285 21.1699 105.584 21.8847 105.584 22.7206V29.069C105.569 29.4639 105.635 29.8577 105.777 30.2262C105.92 30.5947 106.137 30.9301 106.414 31.2117C106.691 31.4932 107.023 31.715 107.39 31.8633C107.756 32.0116 108.149 32.0833 108.544 32.0739C109.382 32.0739 110.094 31.7846 110.681 31.1984C110.965 30.9226 111.19 30.5912 111.341 30.225C111.493 29.8587 111.567 29.4652 111.56 29.069V22.7206C111.56 21.8847 111.859 21.1699 112.456 20.5723C112.735 20.2843 113.069 20.0564 113.439 19.9025C113.809 19.7487 114.206 19.6722 114.607 19.6778C115.444 19.6778 116.161 19.9766 116.759 20.5723C117.356 21.168 117.653 21.8828 117.653 22.7187V29.0633L117.689 29.0671ZM126.492 14.6948C126.498 15.1224 126.416 15.5467 126.251 15.9414C126.086 16.336 125.842 16.6925 125.533 16.9887C125.235 17.2961 124.878 17.5394 124.482 17.7036C124.087 17.8678 123.662 17.9495 123.234 17.9437C122.805 17.9489 122.381 17.8669 121.985 17.7028C121.589 17.5386 121.231 17.2956 120.932 16.9887C120.625 16.6924 120.381 16.3361 120.216 15.9419C120.052 15.5476 119.97 15.1238 119.975 14.6967C119.975 13.8041 120.297 13.0401 120.932 12.4047C121.231 12.097 121.589 11.8536 121.984 11.6894C122.38 11.5251 122.805 11.4436 123.234 11.4497C123.662 11.4436 124.087 11.5252 124.482 11.6894C124.878 11.8537 125.235 12.0971 125.533 12.4047C126.173 13.0401 126.492 13.8041 126.492 14.6967V14.6948ZM126.492 34.886C126.497 35.3138 126.415 35.7381 126.25 36.1329C126.085 36.5277 125.841 36.8846 125.533 37.1818C125.235 37.4894 124.878 37.7328 124.482 37.897C124.087 38.0612 123.662 38.1428 123.234 38.1368C122.339 38.1368 121.573 37.8191 120.932 37.1818C120.624 36.8848 120.381 36.5279 120.216 36.133C120.051 35.7381 119.97 35.3137 119.975 34.886V22.9154C119.975 22.0228 120.297 21.2569 120.932 20.6215C121.23 20.3135 121.588 20.0697 121.984 19.9051C122.38 19.7406 122.805 19.6587 123.234 19.6646C123.662 19.6588 124.087 19.7406 124.483 19.9052C124.878 20.0698 125.236 20.3135 125.533 20.6215C126.173 21.2569 126.492 22.0209 126.492 22.9154V34.886ZM200.5 23.1291C200.5 23.9555 200.203 24.6646 199.607 25.2546C199.331 25.5401 198.999 25.7658 198.631 25.918C198.264 26.0702 197.87 26.1457 197.472 26.1397H193.025C192.192 26.1397 191.487 26.4309 190.906 27.0096C190.624 27.2828 190.4 27.6114 190.25 27.9748C190.099 28.3382 190.026 28.7287 190.033 29.1219V35.1167C190.033 35.945 189.738 36.656 189.144 37.248C188.868 37.5336 188.537 37.7598 188.17 37.9126C187.804 38.0655 187.41 38.1417 187.013 38.1368C186.186 38.1368 185.471 37.8418 184.88 37.248C184.594 36.9731 184.367 36.6424 184.214 36.2764C184.062 35.9105 183.985 35.517 183.991 35.1205V29.1257C183.973 27.94 184.199 26.7632 184.654 25.6682C185.109 24.5733 185.785 23.5835 186.638 22.7603C187.467 21.9073 188.46 21.2328 189.559 20.7781C190.658 20.3235 191.838 20.0983 193.026 20.1166H197.47C197.868 20.1108 198.263 20.1867 198.631 20.3396C198.999 20.4924 199.331 20.719 199.607 21.0054C199.895 21.2783 200.122 21.608 200.275 21.9737C200.428 22.3393 200.504 22.7328 200.496 23.1291H200.5ZM171.95 38.1349C169.386 38.1349 166.969 37.1591 165.063 35.2113C163.157 33.2634 162.425 31.1397 162.425 28.392C162.425 28.392 162.239 19.6589 172.118 19.6589C179.847 19.6589 182.198 25.0863 182.198 27.7679C182.198 29.8973 181.224 30.6537 179.006 30.6537H169.127C169.127 30.6537 168.749 32.9136 173.287 32.9136H178.923C179.265 32.9136 179.605 32.9811 179.921 33.1122C180.238 33.2434 180.526 33.4356 180.768 33.6779C181.01 33.9203 181.203 34.208 181.334 34.5246C181.465 34.8412 181.532 35.1806 181.532 35.5233C181.532 35.866 181.465 36.2053 181.334 36.522C181.203 36.8386 181.01 37.1263 180.768 37.3686C180.526 37.611 180.238 37.8032 179.921 37.9343C179.605 38.0655 179.265 38.133 178.923 38.133H171.963L171.95 38.1349ZM169.193 26.533H175.679C175.679 24.4018 172.453 24.4018 172.453 24.4018C172.453 24.4018 169.193 24.4018 169.193 26.533ZM57.7793 18.859C55.7615 19.2032 52.8379 18.8438 51.2872 18.1971C54.5077 17.9323 56.6881 16.4686 57.5278 14.4811C56.3666 15.1959 52.7622 15.994 50.7766 15.2319L50.4589 13.9157C48.946 8.3445 43.7512 3.85505 38.3143 4.3978L39.6475 3.90233C40.2432 3.68864 43.7568 3.11564 43.2027 1.87886C42.7356 0.785811 38.4429 2.69959 37.6354 2.95111C38.7019 2.57289 40.4682 1.86184 40.6554 0.634521C38.9853 0.881905 37.4265 1.6205 36.1773 2.75633C36.6274 2.2741 36.9659 1.68786 37.0378 1.05434C32.6769 3.8437 30.1296 9.46214 28.0702 14.916C26.4515 13.3464 25.0142 12.1078 23.7283 11.4175C20.1201 9.48294 15.7857 7.46137 9.02882 4.94243C8.83971 7.18716 10.137 10.1713 13.9457 12.1551C13.1249 12.0416 11.6234 12.2912 10.4244 12.5768C10.9124 15.1487 12.5103 17.2667 16.839 18.2879C14.861 18.4202 13.8379 18.8552 12.9131 19.8386C13.8133 21.6294 16.0145 23.7342 19.9669 23.2993C15.5682 25.1979 18.1704 28.7116 21.7521 28.1877C15.6495 34.5002 6.02577 34.0501 0.5 28.7551C14.9252 48.4357 46.289 40.3928 50.96 21.4365C54.4661 21.4649 56.5198 20.2225 57.7963 18.8533L57.7793 18.859Z" fill="#F5F5F5"/>
</svg>
