<svg width="181" height="55" viewBox="0 0 181 55" fill="none" xmlns="http://www.w3.org/2000/svg">
<g clip-path="url(#clip0_248_234)">
<path d="M176.731 32.5619C176.628 33.075 176.449 33.511 176.205 33.8957C175.962 34.2799 175.641 34.5882 175.231 34.8314C174.833 35.0626 174.334 35.1904 173.744 35.1904C173.167 35.1904 172.667 35.0753 172.27 34.8314C171.873 34.5994 171.535 34.2792 171.282 33.8957C171.038 33.5114 170.859 33.075 170.744 32.5619C170.631 32.0526 170.575 31.5323 170.577 31.0106C170.577 30.4722 170.629 29.9334 170.731 29.4341C170.833 28.921 171.013 28.4723 171.257 28.0876C171.5 27.6896 171.821 27.3824 172.231 27.1262C172.629 26.8823 173.128 26.7542 173.718 26.7542C174.295 26.7542 174.782 26.8823 175.18 27.1262C175.578 27.3725 175.915 27.7055 176.167 28.1003C176.424 28.4976 176.603 28.959 176.718 29.4594C176.833 29.9721 176.885 30.4849 176.885 31.0106C176.885 31.5364 176.833 32.0491 176.731 32.5619ZM180.142 28.4209C179.898 27.5619 179.539 26.8183 179.052 26.1644C178.551 25.5236 177.936 24.9974 177.193 24.6131C176.449 24.2285 175.552 24.0233 174.513 24.0233C173.692 24.0233 172.948 24.1901 172.269 24.5107C171.589 24.8313 171.025 25.3567 170.589 26.062H170.538V24.3823H167.102V42.1654H170.718V35.9209H170.769C171.195 36.5483 171.779 37.0525 172.461 37.3828C173.154 37.7161 173.898 37.8829 174.718 37.8829C175.68 37.8829 176.526 37.6907 177.257 37.3187C177.962 36.9574 178.579 36.4452 179.064 35.8185C179.552 35.1904 179.91 34.4721 180.142 33.6518C180.386 32.8311 180.501 31.9855 180.501 31.1004C180.501 30.1646 180.386 29.2672 180.142 28.4079V28.4209ZM162.307 32.5619C162.205 33.075 162.025 33.511 161.781 33.8957C161.538 34.2803 161.217 34.5882 160.807 34.8314C160.41 35.0626 159.91 35.1904 159.32 35.1904C158.743 35.1904 158.256 35.0753 157.845 34.8314C157.449 34.5992 157.111 34.279 156.858 33.8957C156.615 33.5114 156.435 33.075 156.32 32.5619C156.207 32.0526 156.151 31.5323 156.153 31.0106C156.153 30.4722 156.204 29.9334 156.307 29.4341C156.41 28.921 156.589 28.4723 156.832 28.0876C157.076 27.6896 157.397 27.3824 157.807 27.1262C158.204 26.8823 158.704 26.7542 159.294 26.7542C159.871 26.7542 160.358 26.8823 160.756 27.1262C161.154 27.3724 161.491 27.7054 161.743 28.1003C161.999 28.4976 162.179 28.959 162.295 29.4594C162.41 29.9721 162.461 30.4849 162.461 31.0106C162.461 31.5364 162.41 32.0491 162.307 32.5619ZM164.627 26.1644C164.14 25.5236 163.512 24.9974 162.769 24.6131C162.025 24.2285 161.128 24.0233 160.089 24.0233C159.268 24.0233 158.525 24.1901 157.845 24.5107C157.166 24.8313 156.602 25.3567 156.166 26.062H156.114V24.3823H152.678V42.1654H156.293V35.9209H156.345C156.771 36.5483 157.355 37.0525 158.038 37.3828C158.73 37.7161 159.473 37.8829 160.294 37.8829C161.268 37.8829 162.101 37.6907 162.833 37.3187C163.538 36.9572 164.155 36.445 164.64 35.8185C165.128 35.1904 165.487 34.4721 165.731 33.6518C165.967 32.8219 166.088 31.9633 166.09 31.1004C166.09 30.1646 165.974 29.2672 165.731 28.4079C165.487 27.5492 165.128 26.8052 164.627 26.1517V26.1644ZM140.831 30.5236L143.203 23.8435H143.254L145.549 30.5236H140.831ZM141.215 19.3562L134.33 37.5492H138.356L139.78 33.498H146.588L147.96 37.5492H152.114L145.306 19.3562H141.203H141.215ZM134.036 31.7799C133.792 31.3696 133.484 31.0106 133.087 30.7288C132.702 30.4469 132.253 30.2283 131.753 30.0492C131.246 29.8828 130.733 29.7374 130.214 29.6135C129.702 29.4977 129.202 29.3823 128.714 29.2799C128.227 29.1775 127.778 29.0617 127.407 28.9336C127.022 28.8055 126.714 28.6391 126.483 28.4335C126.24 28.2284 126.124 27.9722 126.124 27.6389C126.124 27.3697 126.189 27.1515 126.329 26.9847C126.47 26.8183 126.637 26.7028 126.829 26.6131C127.022 26.5233 127.24 26.472 127.484 26.4466C127.705 26.4221 127.927 26.4093 128.15 26.4083C128.791 26.4083 129.355 26.5364 129.83 26.7799C130.305 27.0234 130.574 27.4978 130.612 28.19H134.048C133.984 27.3693 133.766 26.7028 133.42 26.164C133.074 25.6252 132.638 25.2026 132.112 24.882C131.587 24.5614 130.984 24.3309 130.317 24.1898C129.651 24.0487 128.958 23.9846 128.24 23.9846C127.523 23.9846 126.83 24.049 126.151 24.1768C125.471 24.3048 124.856 24.523 124.317 24.8436C123.766 25.1642 123.33 25.5876 123.01 26.1257C122.676 26.6641 122.51 27.3697 122.51 28.2154C122.51 28.7925 122.625 29.2795 122.869 29.6769C123.099 30.0749 123.42 30.4078 123.804 30.677C124.202 30.9336 124.638 31.1518 125.138 31.3182C125.638 31.4847 126.151 31.6261 126.677 31.7412C127.972 32.0104 128.972 32.2796 129.702 32.5489C130.42 32.8181 130.78 33.2284 130.78 33.7668C130.78 34.0874 130.703 34.3567 130.549 34.5745C130.398 34.7874 130.201 34.9628 129.972 35.0872C129.741 35.2153 129.484 35.3054 129.202 35.3691C128.937 35.4294 128.666 35.4595 128.395 35.4588C128.036 35.4588 127.689 35.4208 127.369 35.3307C127.036 35.241 126.741 35.1122 126.485 34.9331C126.228 34.7536 126.023 34.5227 125.856 34.2409C125.69 33.959 125.612 33.6254 125.612 33.2407H122.176C122.215 34.1251 122.408 34.856 122.779 35.4458C123.138 36.036 123.613 36.4973 124.177 36.8563C124.741 37.2153 125.395 37.4714 126.126 37.6252C126.856 37.7794 127.6 37.8565 128.369 37.8565C129.113 37.8565 129.856 37.7794 130.574 37.6379C131.292 37.4971 131.934 37.2406 132.498 36.8816C133.062 36.5227 133.511 36.0483 133.857 35.4711C134.203 34.8817 134.382 34.1638 134.382 33.2917C134.382 32.6766 134.267 32.1638 134.023 31.7531L134.036 31.7799ZM119.073 20.4334H115.457V24.3823H113.264V26.8052H115.457V34.5752C115.457 35.2421 115.572 35.7679 115.79 36.1778C116.009 36.5885 116.316 36.8957 116.701 37.127C117.085 37.3448 117.522 37.4986 118.022 37.5757C118.548 37.654 119.079 37.6924 119.612 37.6907C119.971 37.6907 120.329 37.6781 120.714 37.6654C121.054 37.6539 121.392 37.6196 121.727 37.5626V34.7547C121.55 34.7946 121.37 34.8203 121.189 34.8314C120.993 34.8467 120.796 34.8553 120.599 34.8571C119.984 34.8571 119.586 34.7547 119.381 34.5492C119.176 34.3443 119.073 33.9337 119.073 33.3315V26.8052H121.727V24.3823H119.073V20.4334H119.073ZM108.7 32.4595C108.7 32.6643 108.675 32.9339 108.636 33.2802C108.593 33.6343 108.475 33.9753 108.29 34.2803C108.098 34.6139 107.815 34.8958 107.418 35.1397C107.034 35.3829 106.469 35.4986 105.764 35.4986C105.482 35.4986 105.2 35.4726 104.918 35.4216C104.649 35.3698 104.405 35.2801 104.2 35.1524C103.995 35.0239 103.841 34.8575 103.713 34.6266C103.598 34.4088 103.533 34.1395 103.533 33.8059C103.533 33.4596 103.598 33.1904 103.713 32.9599C103.828 32.7414 103.995 32.5619 104.187 32.4085C104.38 32.2673 104.61 32.1523 104.88 32.0625C105.149 31.9728 105.405 31.9084 105.687 31.857C105.977 31.8072 106.267 31.7645 106.559 31.7289C106.854 31.6905 107.123 31.6518 107.393 31.6008C107.662 31.5498 107.905 31.4854 108.136 31.4087C108.367 31.332 108.559 31.2292 108.713 31.0881V32.4345L108.7 32.4595ZM112.316 34.6262V27.7667C112.316 26.972 112.136 26.3308 111.778 25.8438C111.419 25.3564 110.956 24.9848 110.405 24.7155C109.841 24.4463 109.226 24.2669 108.546 24.1645C107.879 24.0733 107.207 24.0261 106.534 24.0233C105.802 24.0233 105.072 24.1004 104.354 24.2415C103.636 24.3826 102.982 24.6258 102.405 24.9725C101.837 25.3105 101.351 25.7704 100.982 26.3189C100.61 26.883 100.392 27.5879 100.341 28.4343H103.957C104.021 27.7167 104.264 27.2166 104.674 26.9087C105.085 26.6008 105.636 26.4474 106.354 26.4474C106.675 26.4474 106.982 26.4727 107.265 26.5114C107.527 26.5459 107.78 26.6332 108.008 26.768C108.226 26.896 108.393 27.0755 108.521 27.3064C108.649 27.5372 108.713 27.8445 108.713 28.2421C108.726 28.6137 108.624 28.8963 108.38 29.1012C108.136 29.2933 107.816 29.4474 107.406 29.5499C106.996 29.6523 106.534 29.7293 106.008 29.7807C105.482 29.8321 104.944 29.8961 104.406 29.9859C103.867 30.0756 103.328 30.1907 102.79 30.3318C102.251 30.4729 101.777 30.6908 101.366 30.986C100.943 31.2806 100.61 31.6652 100.341 32.1396C100.072 32.627 99.9433 33.2425 99.9433 33.9861C99.9433 34.6657 100.058 35.2555 100.29 35.7425C100.506 36.2174 100.831 36.6347 101.238 36.9609C101.662 37.2901 102.145 37.5339 102.661 37.6788C103.2 37.8326 103.79 37.9093 104.418 37.9093C105.239 37.9093 106.034 37.7942 106.815 37.5503C107.589 37.3142 108.29 36.8866 108.854 36.307C108.867 36.5249 108.906 36.7423 108.944 36.9609C108.982 37.1657 109.046 37.3839 109.111 37.589H112.778C112.611 37.3198 112.483 36.9091 112.419 36.3707C112.351 35.8049 112.317 35.2355 112.316 34.6657V34.6262H112.316ZM97.4175 25.5232C97.0586 25.0618 96.5712 24.6899 95.956 24.4333C95.3405 24.1641 94.5459 24.0356 93.5711 24.0356C92.8915 24.0356 92.1993 24.2151 91.4814 24.5614C90.7635 24.9077 90.1864 25.4718 89.725 26.2281H89.6479V19.3689H86.0323V37.5623H89.6479V30.6517C89.6479 29.3052 89.8661 28.3438 90.3148 27.754C90.7508 27.1642 91.4688 26.8823 92.4559 26.8823C93.3149 26.8823 93.9304 27.1515 94.2637 27.6896C94.5973 28.228 94.7768 29.036 94.7768 30.1256V37.5623H98.3924V29.4594C98.3924 28.6387 98.3153 27.8955 98.1742 27.2286C98.0331 26.5617 97.7765 25.9849 97.4175 25.5232ZM78.3007 31.9084H78.2493L75.1468 19.3692H71.4028L68.2485 31.7546H68.1972L65.3121 19.3692H61.3123L66.1328 37.5626H70.1844L73.2102 25.1769H73.2616L76.3388 37.5626H80.3133L82.4927 29.4851L85.2109 19.3692H81.2874L78.3007 31.9084Z" fill="#F5F5F5"/>
<path d="M27.3995 48.5117C22.9759 48.5117 18.8476 47.1783 15.3988 44.9091L7.01328 47.5883L9.73149 39.4854C7.11605 35.8951 5.57783 31.4719 5.57783 26.7023C5.57783 14.6759 15.3604 4.89335 27.3868 4.89335C39.4132 4.89335 49.1958 14.6759 49.1958 26.7023C49.1958 38.7284 39.4132 48.5113 27.3868 48.5113H27.3995V48.5117ZM27.3995 0.764648C13.0775 0.764648 1.46179 12.3814 1.46179 26.7027C1.46179 31.6003 2.8209 36.1904 5.17979 40.1009L0.5 54.0122L14.8603 49.4095C18.6986 51.5319 23.0135 52.6437 27.3995 52.6404C41.7211 52.6404 53.3372 41.0243 53.3372 26.7027C53.3368 12.3814 41.7211 0.764648 27.3995 0.764648Z" fill="#F5F5F5"/>
<path d="M27.3998 4.89331C15.3734 4.89331 5.59082 14.6759 5.59082 26.7023C5.59082 31.4718 7.1294 35.8951 9.74485 39.4854L7.02664 47.5882L15.4118 44.9091C18.8605 47.1913 22.9762 48.5117 27.4125 48.5117C39.4389 48.5117 49.2215 38.7287 49.2215 26.7027C49.2215 14.6763 39.4389 4.89367 27.4125 4.89367H27.3998V4.89331Z" fill="url(#paint0_linear_248_234)"/>
<path d="M21.3095 15.9715C20.8865 14.9586 20.5659 14.9203 19.9251 14.8942C19.6817 14.8786 19.438 14.8701 19.1941 14.8689C18.3604 14.8689 17.4887 15.1124 16.963 15.6509C16.3221 16.3047 14.7322 17.8303 14.7322 20.9588C14.7322 24.0874 17.0144 27.1131 17.3219 27.5365C17.6425 27.9591 21.7712 34.4724 28.1817 37.127C33.1948 39.204 34.6824 39.0115 35.8233 38.7679C37.49 38.409 39.58 37.1776 40.1058 35.6908C40.6315 34.2032 40.6315 32.9338 40.4774 32.6646C40.3236 32.3954 39.9002 32.242 39.2594 31.921C38.6186 31.6004 35.5027 30.0619 34.9129 29.8567C34.3357 29.6389 33.7846 29.7159 33.3489 30.3314C32.7334 31.1905 32.131 32.0625 31.6436 32.5879C31.2589 32.9983 30.6304 33.0496 30.105 32.8314C29.3997 32.5369 27.4255 31.844 24.9892 29.6772C23.1043 27.9979 21.8222 25.9082 21.4506 25.28C21.0786 24.6392 21.4123 24.2668 21.7068 23.9209C22.0274 23.5232 22.335 23.2414 22.6556 22.8694C22.9762 22.4978 23.1557 22.3053 23.3608 21.8692C23.579 21.4462 23.4249 21.0102 23.2711 20.6896C23.1173 20.369 21.8353 17.2405 21.3095 15.9715Z" fill="#F5F5F5"/>
</g>
<defs>
<linearGradient id="paint0_linear_248_234" x1="-158.343" y1="-68.1756" x2="-158.343" y2="-66.5753" gradientUnits="userSpaceOnUse">
<stop stop-color="#F5F5F5"/>
<stop offset="0.231" stop-color="#50A557"/>
<stop offset="0.522" stop-color="#2A904F"/>
<stop offset="0.812" stop-color="#50A557"/>
<stop offset="1" stop-color="#6EBF63"/>
</linearGradient>
<clipPath id="clip0_248_234">
<rect width="180" height="53.28" fill="white" transform="translate(0.5 0.748047)"/>
</clipPath>
</defs>
</svg>
