<svg width="101" height="22" viewBox="0 0 101 22" fill="none" xmlns="http://www.w3.org/2000/svg">
<g clip-path="url(#clip0_354_88)">
<path d="M21.9611 3.58915C20.3593 2.84676 18.6466 2.30722 16.8561 2C16.6362 2.39384 16.3793 2.92357 16.2021 3.34497C14.2987 3.06141 12.4128 3.06141 10.5444 3.34497C10.3673 2.92357 10.1045 2.39384 9.88267 2C8.09018 2.30722 6.37553 2.84874 4.77376 3.59308C1.54298 8.42939 0.667173 13.1456 1.10508 17.7948C3.2479 19.38 5.32455 20.3429 7.36616 20.9731C7.87024 20.2858 8.31981 19.5552 8.70711 18.7853C7.96949 18.5076 7.26301 18.165 6.59546 17.7672C6.77256 17.6373 6.94579 17.5014 7.11315 17.3616C11.1847 19.248 15.6085 19.248 19.6314 17.3616C19.8008 17.5014 19.9739 17.6373 20.1491 17.7672C19.4796 18.167 18.7712 18.5096 18.0336 18.7873C18.4209 19.5552 18.8685 20.2878 19.3745 20.975C21.4181 20.3449 23.4967 19.3819 25.6395 17.7948C26.1533 12.4052 24.7617 7.73229 21.9611 3.58915ZM9.2618 14.9356C8.03957 14.9356 7.03724 13.8052 7.03724 12.4288C7.03724 11.0523 8.01817 9.92005 9.2618 9.92005C10.5055 9.92005 11.5078 11.0503 11.4864 12.4288C11.4883 13.8052 10.5055 14.9356 9.2618 14.9356ZM17.4828 14.9356C16.2605 14.9356 15.2582 13.8052 15.2582 12.4288C15.2582 11.0523 16.2391 9.92005 17.4828 9.92005C18.7264 9.92005 19.7287 11.0503 19.7073 12.4288C19.7073 13.8052 18.7264 14.9356 17.4828 14.9356Z" fill="#F5F5F5"/>
<path d="M34.251 6.84082H39.5641C40.8449 6.84082 41.927 7.04364 42.8146 7.44733C43.6999 7.85098 44.3638 8.41418 44.8037 9.1349C45.2433 9.85562 45.4651 10.6807 45.4651 11.6102C45.4651 12.5199 45.2355 13.345 44.7762 14.0834C44.317 14.8238 43.6182 15.4087 42.6783 15.84C41.7384 16.2712 40.5742 16.4878 39.1828 16.4878H34.251V6.84082ZM39.1282 14.0362C39.9905 14.0362 40.6543 13.8176 41.1173 13.3824C41.5806 12.9452 41.8123 12.3506 41.8123 11.5964C41.8123 10.8973 41.6057 10.34 41.1933 9.92255C40.7808 9.50509 40.156 9.29441 39.3209 9.29441H37.6588V14.0362H39.1282Z" fill="#F5F5F5"/>
<path d="M53.4197 16.4758C52.684 16.2828 52.0202 16.0032 51.4307 15.6349V13.3468C51.8764 13.6953 52.4737 13.9828 53.223 14.2092C53.9723 14.4337 54.6965 14.546 55.3969 14.546C55.7239 14.546 55.9712 14.5027 56.1384 14.416C56.306 14.3294 56.3898 14.225 56.3898 14.1049C56.3898 13.967 56.345 13.8528 56.2534 13.7603C56.1618 13.6677 55.9847 13.5909 55.7222 13.5259L54.0873 13.1538C53.1511 12.9332 52.4873 12.628 52.0924 12.2361C51.6973 11.8462 51.5005 11.3342 51.5005 10.7002C51.5005 10.1665 51.6718 9.70378 52.0185 9.30795C52.3628 8.91216 52.8533 8.60692 53.4896 8.39228C54.1263 8.17568 54.8695 8.06738 55.7239 8.06738C56.4868 8.06738 57.1855 8.15008 57.8222 8.3155C58.4585 8.48092 58.9839 8.6916 59.4025 8.94956V11.1137C58.9741 10.8557 58.4836 10.6529 57.9233 10.4993C57.3646 10.3477 56.7907 10.2729 56.1988 10.2729C55.3443 10.2729 54.9183 10.4205 54.9183 10.7139C54.9183 10.8518 54.9845 10.9542 55.1167 11.0231C55.249 11.092 55.4922 11.1629 55.8447 11.2378L57.2069 11.4859C58.0966 11.6414 58.7601 11.9152 59.196 12.305C59.6322 12.695 59.8499 13.2719 59.8499 14.036C59.8499 14.8728 59.49 15.5365 58.7679 16.0288C58.0457 16.5211 57.022 16.7672 55.6947 16.7672C54.9142 16.7652 54.1554 16.6687 53.4197 16.4758V16.4758Z" fill="#F5F5F5"/>
<path d="M63.0657 16.1863C62.2855 15.8003 61.6956 15.2765 61.3025 14.6149C60.9094 13.9532 60.7109 13.2089 60.7109 12.3818C60.7109 11.5548 60.9151 10.8144 61.3239 10.1626C61.7326 9.51078 62.332 8.99879 63.1223 8.62662C63.9123 8.25445 64.8563 8.06934 65.956 8.06934C67.3182 8.06934 68.4491 8.35881 69.3483 8.93773V11.4603C69.0312 11.2397 68.6611 11.0605 68.2388 10.9227C67.8165 10.7848 67.365 10.7159 66.8823 10.7159C66.0377 10.7159 65.378 10.8715 64.9011 11.1846C64.4242 11.4977 64.185 11.9053 64.185 12.4114C64.185 12.9076 64.4164 13.3133 64.8797 13.6323C65.343 13.9493 66.0143 14.1088 66.8959 14.1088C67.3494 14.1088 67.7971 14.0418 68.2388 13.9099C68.6787 13.776 69.0583 13.6126 69.3754 13.4196V15.8594C68.3772 16.4659 67.2192 16.7691 65.9014 16.7691C64.7922 16.7652 63.8462 16.5722 63.0657 16.1863Z" fill="#F5F5F5"/>
<path d="M72.7463 16.1863C71.9601 15.8004 71.3607 15.2726 70.9479 14.6011C70.5354 13.9296 70.3271 13.1814 70.3271 12.3543C70.3271 11.5273 70.5334 10.7888 70.9479 10.141C71.3624 9.49309 71.958 8.98504 72.7406 8.6168C73.5207 8.24856 74.4532 8.06543 75.5332 8.06543C76.6135 8.06543 77.5456 8.24856 78.3261 8.6168C79.1066 8.98504 79.7023 9.48916 80.111 10.1331C80.5197 10.777 80.7239 11.5154 80.7239 12.3524C80.7239 13.1794 80.5197 13.9277 80.111 14.5992C79.7023 15.2706 79.1046 15.7984 78.3183 16.1843C77.5321 16.5703 76.6037 16.7633 75.5315 16.7633C74.4589 16.7633 73.5305 16.5723 72.7463 16.1863ZM76.8859 13.7406C77.217 13.4059 77.3842 12.9628 77.3842 12.4114C77.3842 11.8601 77.2187 11.4209 76.8859 11.096C76.5552 10.7691 76.1034 10.6057 75.5315 10.6057C74.9494 10.6057 74.4939 10.7691 74.1611 11.096C73.8304 11.4229 73.6649 11.8601 73.6649 12.4114C73.6649 12.9628 73.8304 13.4059 74.1611 13.7406C74.4922 14.0754 74.9494 14.2447 75.5315 14.2447C76.1034 14.2427 76.5552 14.0754 76.8859 13.7406Z" fill="#F5F5F5"/>
<path d="M88.9101 8.57739V11.5548C88.5637 11.3244 88.116 11.2102 87.5614 11.2102C86.8352 11.2102 86.2748 11.4327 85.8854 11.8777C85.4943 12.3228 85.2996 13.0159 85.2996 13.9532V16.4895H81.9619V8.42578H85.2318V10.9896C85.4126 10.0523 85.7067 9.36115 86.1113 8.91411C86.5143 8.46909 87.0357 8.24658 87.6703 8.24658C88.1509 8.24658 88.5637 8.35686 88.9101 8.57739Z" fill="#F5F5F5"/>
<path d="M99.9997 6.56445V16.4891H96.6616V14.6834C96.3794 15.3628 95.9513 15.8807 95.3754 16.2351C94.7991 16.5876 94.0868 16.7648 93.2421 16.7648C92.4871 16.7648 91.8294 16.5797 91.2667 16.2075C90.7043 15.8354 90.2704 15.3254 89.9648 14.6775C89.6612 14.0296 89.5072 13.2971 89.5072 12.4779C89.4977 11.6331 89.6592 10.875 89.9919 10.2035C90.323 9.53201 90.7918 9.00823 91.3952 8.63209C91.9987 8.25599 92.6876 8.06695 93.4603 8.06695C95.0504 8.06695 96.1169 8.76599 96.6616 10.1621V6.56445H99.9997ZM96.1637 13.685C96.5042 13.3503 96.6735 12.9151 96.6735 12.3834C96.6735 11.8694 96.508 11.45 96.1772 11.129C95.8462 10.8081 95.3927 10.6466 94.8225 10.6466C94.2601 10.6466 93.8107 10.81 93.4738 11.1369C93.137 11.4638 92.9698 11.8871 92.9698 12.411C92.9698 12.9348 93.137 13.3621 93.4738 13.6929C93.8107 14.0237 94.2543 14.1891 94.8089 14.1891C95.3713 14.1872 95.8228 14.0198 96.1637 13.685V13.685Z" fill="#F5F5F5"/>
<path d="M48.2784 9.28392C49.1973 9.28392 49.9425 8.60682 49.9425 7.77158C49.9425 6.93635 49.1973 6.25928 48.2784 6.25928C47.3591 6.25928 46.6143 6.93635 46.6143 7.77158C46.6143 8.60682 47.3591 9.28392 48.2784 9.28392Z" fill="#F5F5F5"/>
<path d="M46.6133 10.3257C47.6329 10.7707 48.8981 10.7904 49.9412 10.3257V16.5325H46.6133V10.3257Z" fill="#F5F5F5"/>
</g>
<defs>
<clipPath id="clip0_354_88">
<rect width="99" height="18.975" fill="white" transform="translate(1 2)"/>
</clipPath>
</defs>
</svg>
