<svg width="29" height="22" viewBox="0 0 29 22" fill="none" xmlns="http://www.w3.org/2000/svg">
<path fill-rule="evenodd" clip-rule="evenodd" d="M4.4733 3H24.8657L16.3373 10.4068C15.464 11.1652 14.174 11.1931 13.2687 10.4732L3.97853 3.08514C4.13317 3.03001 4.29973 3 4.4733 3ZM3 4.4733C3 4.30328 3.0288 4.13999 3.08179 3.98804L11.1017 10.3659L3.13778 17.316C3.04938 17.1268 3 16.9157 3 16.6931V4.4733ZM4.13241 18.1267C4.24183 18.1526 4.35596 18.1664 4.4733 18.1664H24.8018L17.4806 11.0892L17.1667 11.3617C15.8333 12.5198 13.8637 12.5624 12.4814 11.4631L12.1081 11.1663L4.13241 18.1267ZM18.4392 10.2566L26.0648 17.6281C26.274 17.3737 26.3995 17.0481 26.3995 16.6931V4.4733C26.3995 4.14426 26.2917 3.84041 26.1093 3.59518L18.4392 10.2566Z" fill="#F5F5F5"/>
</svg>
