<svg width="22" height="22" viewBox="0 0 22 22" fill="none" xmlns="http://www.w3.org/2000/svg">
<path d="M17.0829 14.3645L18.6563 9.64423C20.0308 5.52071 20.718 3.45895 19.6297 2.37062C18.5414 1.28229 16.4796 1.96954 12.3561 3.34405L7.63587 4.91746C4.30779 6.02682 2.64376 6.5815 2.17088 7.3949C1.72103 8.16869 1.72103 9.12438 2.17088 9.89818C2.64375 10.7116 4.30779 11.2663 7.63587 12.3756C8.04832 12.5131 8.51234 12.4149 8.82119 12.1089L13.868 7.10887C14.1519 6.82757 14.6102 6.82971 14.8915 7.11363C15.1728 7.39756 15.1706 7.85577 14.8867 8.13707L9.92135 13.0564C9.58094 13.3937 9.47318 13.9099 9.62471 14.3645C10.7341 17.6925 11.2887 19.3566 12.1021 19.8294C12.8759 20.2793 13.8316 20.2793 14.6054 19.8294C15.4188 19.3566 15.9735 17.6925 17.0829 14.3645Z" fill="#F5F5F5"/>
<path d="M18.6563 9.64423L18.9172 9.73119L18.9172 9.73119L18.6563 9.64423ZM17.0829 14.3645L16.822 14.2775L16.822 14.2775L17.0829 14.3645ZM7.63587 4.91746L7.54891 4.65657L7.63587 4.91746ZM12.3561 3.34405L12.4431 3.60494L12.4431 3.60494L12.3561 3.34405ZM2.17088 7.3949L1.93314 7.25668L1.93314 7.25668L2.17088 7.3949ZM7.63587 12.3756L7.72284 12.1147L7.72284 12.1147L7.63587 12.3756ZM2.17088 9.89818L1.93314 10.0364L1.93314 10.0364L2.17088 9.89818ZM14.6054 19.8294L14.4672 19.5917L14.4672 19.5917L14.6054 19.8294ZM9.62471 14.3645L9.8856 14.2775L9.8856 14.2775L9.62471 14.3645ZM12.1021 19.8294L12.2404 19.5917L12.2404 19.5917L12.1021 19.8294ZM14.8867 8.13707L14.6931 7.94171L14.6931 7.94171L14.8867 8.13707ZM14.8915 7.11363L15.0868 6.92009L15.0868 6.92009L14.8915 7.11363ZM13.868 7.10887L13.6745 6.91351L13.6745 6.91351L13.868 7.10887ZM8.82119 12.1089L8.62764 11.9136L8.62764 11.9136L8.82119 12.1089ZM9.92135 13.0564L9.72781 12.861L9.7278 12.861L9.92135 13.0564ZM18.3954 9.55727L16.822 14.2775L17.3438 14.4514L18.9172 9.73119L18.3954 9.55727ZM7.72284 5.17835L12.4431 3.60494L12.2691 3.08316L7.54891 4.65657L7.72284 5.17835ZM7.54891 4.65657C5.88966 5.20965 4.62885 5.62969 3.72504 6.0141C2.83606 6.3922 2.22005 6.76316 1.93314 7.25668L2.40863 7.53311C2.59459 7.21323 3.04703 6.90015 3.94031 6.52022C4.81875 6.1466 6.05401 5.73462 7.72284 5.17835L7.54891 4.65657ZM7.72284 12.1147C6.05401 11.5585 4.81875 11.1465 3.94031 10.7728C3.04703 10.3929 2.59459 10.0798 2.40863 9.75996L1.93314 10.0364C2.22005 10.5299 2.83606 10.9009 3.72504 11.279C4.62885 11.6634 5.88966 12.0834 7.54891 12.6365L7.72284 12.1147ZM1.93314 7.25668C1.43362 8.11593 1.43362 9.17714 1.93314 10.0364L2.40863 9.75996C2.00845 9.07161 2.00845 8.22146 2.40863 7.53311L1.93314 7.25668ZM16.822 14.2775C16.2657 15.9463 15.8537 17.1816 15.4801 18.06C15.1002 18.9533 14.7871 19.4057 14.4672 19.5917L14.7436 20.0672C15.2372 19.7803 15.6081 19.1643 15.9862 18.2753C16.3706 17.3715 16.7907 16.1107 17.3438 14.4514L16.822 14.2775ZM9.36382 14.4514C9.9169 16.1107 10.3369 17.3715 10.7213 18.2753C11.0995 19.1643 11.4704 19.7803 11.9639 20.0672L12.2404 19.5917C11.9205 19.4057 11.6074 18.9533 11.2275 18.06C10.8539 17.1816 10.4419 15.9463 9.8856 14.2775L9.36382 14.4514ZM14.4672 19.5917C13.7789 19.9919 12.9287 19.9919 12.2404 19.5917L11.9639 20.0672C12.8232 20.5667 13.8844 20.5667 14.7436 20.0672L14.4672 19.5917ZM18.9172 9.73119C19.6015 7.67831 20.1253 6.10897 20.3373 4.91739C20.5489 3.72781 20.4678 2.81976 19.8242 2.17617L19.4353 2.56507C19.88 3.00981 19.9994 3.67681 19.7958 4.82106C19.5926 5.96333 19.0856 7.48663 18.3954 9.55727L18.9172 9.73119ZM12.4431 3.60494C14.5137 2.91472 16.037 2.40772 17.1793 2.20452C18.3235 2.00097 18.9905 2.12034 19.4353 2.56507L19.8242 2.17617C19.1806 1.53258 18.2725 1.4514 17.0829 1.66302C15.8914 1.87499 14.322 2.39887 12.2691 3.08316L12.4431 3.60494ZM15.0802 8.33242C15.4721 7.94423 15.475 7.31191 15.0868 6.92009L14.6961 7.30718C14.8705 7.48322 14.8692 7.7673 14.6931 7.94171L15.0802 8.33242ZM15.0868 6.92009C14.6986 6.52827 14.0663 6.52532 13.6745 6.91351L14.0616 7.30423C14.2376 7.12982 14.5217 7.13115 14.6961 7.30718L15.0868 6.92009ZM13.6745 6.91351L8.62764 11.9136L9.01473 12.3043L14.0616 7.30423L13.6745 6.91351ZM10.1149 13.2518L15.0802 8.33242L14.6931 7.94171L9.72781 12.861L10.1149 13.2518ZM9.7278 12.861C9.30822 13.2767 9.18142 13.9042 9.36382 14.4514L9.8856 14.2775C9.76494 13.9155 9.85365 13.5106 10.1149 13.2518L9.7278 12.861ZM8.62764 11.9136C8.39603 12.1431 8.04177 12.221 7.72284 12.1147L7.54891 12.6365C8.05488 12.8052 8.62864 12.6868 9.01473 12.3043L8.62764 11.9136Z" fill="white"/>
</svg>
