<svg width="94" height="22" viewBox="0 0 94 22" fill="none" xmlns="http://www.w3.org/2000/svg">
<path d="M82.98 14.8714C82.9678 14.874 82.9555 14.8732 82.9433 14.8749L83.0062 14.8662C82.9975 14.867 82.9887 14.8714 82.98 14.8732V14.8714ZM40.6476 17.8438C40.6501 18.0414 40.612 18.2375 40.5356 18.4197C40.4592 18.602 40.3461 18.7666 40.2035 18.9034C40.0656 19.0456 39.9001 19.1581 39.7171 19.234C39.5341 19.3099 39.3376 19.3477 39.1395 19.3449H36.1523C35.56 19.354 34.9721 19.2419 34.4247 19.0155C33.8773 18.7891 33.382 18.4531 32.9692 18.0283C32.0879 17.1497 31.6578 16.0927 31.6578 14.8548V8.83742C31.6578 8.41342 31.8038 8.0576 32.0975 7.76823C32.3913 7.47886 32.7497 7.33548 33.1729 7.33548C33.3698 7.33259 33.5652 7.37031 33.7469 7.44626C33.9286 7.52222 34.0927 7.6348 34.2289 7.77697C34.5227 8.07071 34.6704 8.42391 34.6704 8.83655V11.016H38.9122C39.2969 11.016 39.6274 11.1524 39.9027 11.4252C40.1781 11.6979 40.3154 12.0249 40.3154 12.4078C40.3179 12.591 40.2826 12.7728 40.212 12.9418C40.1413 13.1108 40.0366 13.2635 39.9045 13.3905C39.7762 13.5221 39.6224 13.6263 39.4526 13.6966C39.2828 13.7669 39.1004 13.802 38.9166 13.7996H34.6704V14.8539C34.6704 15.2674 34.8147 15.6189 35.1049 15.9083C35.3952 16.1976 35.7466 16.3419 36.161 16.3419H39.1334C39.5469 16.3419 39.9027 16.4905 40.1974 16.7843C40.34 16.921 40.4531 17.0856 40.5295 17.2679C40.6059 17.4502 40.644 17.6462 40.6415 17.8438H40.6476ZM75.5437 17.8438C75.5463 18.0414 75.5083 18.2374 75.4321 18.4196C75.3559 18.6019 75.243 18.7666 75.1005 18.9034C74.9627 19.0455 74.7973 19.158 74.6145 19.2339C74.4317 19.3098 74.2353 19.3476 74.0374 19.3449H72.6841C72.0916 19.3541 71.5036 19.2421 70.956 19.0157C70.4085 18.7893 69.913 18.4533 69.5001 18.0283C69.0746 17.6179 68.7378 17.1244 68.5108 16.5785C68.2837 16.0327 68.1711 15.446 68.18 14.8548V8.83742C68.18 8.41342 68.326 8.0576 68.6197 7.76823C68.9135 7.47886 69.271 7.33548 69.6951 7.33548C69.892 7.33259 70.0874 7.37031 70.2691 7.44626C70.4508 7.52222 70.6149 7.6348 70.7511 7.77697C70.8932 7.91404 71.0056 8.0788 71.0813 8.26106C71.1571 8.44331 71.1947 8.63918 71.1918 8.83655V11.016H73.8083C73.9924 11.0134 74.1752 11.0483 74.3453 11.1187C74.5155 11.189 74.6695 11.2933 74.798 11.4252C75.0734 11.6979 75.2106 12.0249 75.2106 12.4078C75.2131 12.591 75.1779 12.7728 75.1072 12.9418C75.0365 13.1108 74.9319 13.2635 74.7997 13.3905C74.6714 13.5221 74.5177 13.6263 74.3479 13.6966C74.178 13.7669 73.9957 13.802 73.8118 13.7996H71.1918V14.8539C71.1918 15.2674 71.336 15.6189 71.6263 15.9083C71.9165 16.1976 72.2679 16.3419 72.6823 16.3419H74.0374C74.4509 16.3419 74.8067 16.4905 75.1014 16.7843C75.2439 16.9211 75.3567 17.0858 75.433 17.268C75.5092 17.4503 75.5472 17.6463 75.5446 17.8438H75.5437ZM67.6756 17.8438C67.6756 18.2547 67.5269 18.6088 67.2323 18.9034C67.0944 19.0456 66.9289 19.1582 66.746 19.2341C66.563 19.31 66.3664 19.3477 66.1684 19.3449H64.8151C63.5736 19.3449 62.5132 18.906 61.6328 18.0283C61.207 17.618 60.8699 17.1246 60.6425 16.5787C60.4152 16.0329 60.3023 15.4461 60.311 14.8548V8.83742C60.3066 8.63851 60.3434 8.44085 60.4191 8.25684C60.4947 8.07284 60.6077 7.90648 60.7507 7.76823C61.0445 7.47973 61.4029 7.33548 61.826 7.33548C62.0229 7.33259 62.2183 7.37031 62.4 7.44626C62.5817 7.52222 62.7458 7.6348 62.8821 7.77697C63.1759 8.07071 63.3236 8.42391 63.3236 8.83655V11.016H65.9393C66.324 11.016 66.6545 11.1524 66.9298 11.4252C67.0626 11.5517 67.1677 11.7043 67.2385 11.8734C67.3094 12.0425 67.3445 12.2245 67.3416 12.4078C67.3441 12.591 67.3089 12.7728 67.2382 12.9418C67.1675 13.1108 67.0629 13.2635 66.9307 13.3905C66.6571 13.6527 66.3187 13.7996 65.9446 13.7996H63.3149V14.8539C63.3149 15.2674 63.4591 15.6189 63.7494 15.9083C64.0396 16.1976 64.3911 16.3419 64.8054 16.3419H66.1605C66.574 16.3419 66.9298 16.4905 67.2245 16.7843C67.367 16.9211 67.4798 17.0858 67.5561 17.268C67.6323 17.4503 67.6703 17.6463 67.6677 17.8438H67.6756ZM55.1757 15.1442C55.1757 16.3025 54.7648 17.2913 53.9395 18.1131C53.5538 18.5108 53.0906 18.8253 52.5787 19.0372C52.0667 19.249 51.5167 19.3538 50.9627 19.3449C49.9014 19.3449 48.9669 18.9952 48.1591 18.2696C47.4022 18.9713 46.4049 19.3559 45.3729 19.344C44.8188 19.3525 44.2688 19.2476 43.7568 19.0358C43.2447 18.8239 42.7814 18.5096 42.3952 18.1122C41.997 17.7283 41.6818 17.2667 41.4694 16.756C41.2569 16.2453 41.1515 15.6964 41.1599 15.1433V12.2102C41.1555 12.0239 41.19 11.8386 41.2614 11.6664C41.3328 11.4941 41.4393 11.3387 41.5743 11.2101C41.8497 10.9478 42.1819 10.8045 42.5683 10.8045C42.7528 10.8013 42.936 10.8356 43.1069 10.9054C43.2778 10.9751 43.4327 11.0788 43.5623 11.2101C43.8386 11.4724 43.9767 11.8221 43.9767 12.2111V15.1459C43.9734 15.3291 44.0078 15.511 44.0778 15.6803C44.1477 15.8497 44.2517 16.0028 44.3832 16.1303C44.5122 16.2608 44.6662 16.3638 44.8359 16.4334C45.0057 16.5029 45.1877 16.5375 45.3711 16.5351C45.747 16.5351 46.0705 16.4013 46.3328 16.1303C46.4642 16.0027 46.568 15.8496 46.6378 15.6802C46.7075 15.5109 46.7418 15.329 46.7384 15.1459V12.226C46.7384 11.8413 46.8783 11.5073 47.1537 11.2258C47.2845 11.0894 47.4421 10.9815 47.6167 10.9088C47.7912 10.8362 47.9788 10.8003 48.1678 10.8036C48.3533 10.8011 48.5374 10.8365 48.7088 10.9076C48.8801 10.9787 49.0352 11.084 49.1644 11.2171C49.4416 11.4934 49.5797 11.8238 49.5797 12.2102V15.1451C49.5726 15.3276 49.603 15.5097 49.6689 15.68C49.7349 15.8504 49.8351 16.0054 49.9633 16.1356C50.0915 16.2658 50.245 16.3683 50.4143 16.4368C50.5837 16.5054 50.7652 16.5385 50.9479 16.5342C51.3352 16.5342 51.6648 16.4005 51.9358 16.1294C52.0673 16.002 52.1713 15.8488 52.2412 15.6795C52.3112 15.5101 52.3456 15.3282 52.3423 15.1451V12.2102C52.3423 11.8238 52.4804 11.4934 52.7567 11.2171C52.8854 11.084 53.0399 10.9786 53.2109 10.9075C53.3818 10.8363 53.5655 10.801 53.7507 10.8036C54.138 10.8036 54.4693 10.9417 54.7456 11.2171C55.0218 11.4925 55.1591 11.8229 55.1591 12.2094V15.1424L55.1757 15.1442ZM59.2453 8.49997C59.248 8.69767 59.2101 8.89382 59.1338 9.07624C59.0576 9.25867 58.9447 9.42347 58.802 9.56042C58.6643 9.70254 58.4989 9.81501 58.3161 9.89093C58.1333 9.96685 57.9369 10.0046 57.739 10.0019C57.541 10.0043 57.3445 9.96643 57.1616 9.89053C56.9787 9.81463 56.8131 9.70232 56.675 9.56042C56.5328 9.42343 56.4201 9.25873 56.344 9.07648C56.2679 8.89423 56.23 8.69831 56.2327 8.50084C56.2327 8.0882 56.3813 7.73501 56.675 7.44126C56.8129 7.29903 56.9784 7.1865 57.1614 7.11058C57.3443 7.03466 57.5409 6.99695 57.739 6.99977C57.9369 6.99697 58.1333 7.03468 58.3161 7.11061C58.499 7.18653 58.6643 7.29906 58.802 7.44126C59.0975 7.73501 59.2453 8.0882 59.2453 8.50084V8.49997ZM59.2453 17.8342C59.2476 18.032 59.2095 18.2281 59.1333 18.4107C59.0571 18.5932 58.9443 18.7582 58.802 18.8955C58.6643 19.0377 58.499 19.1503 58.3161 19.2262C58.1333 19.3021 57.9369 19.3398 57.739 19.337C57.3255 19.337 56.9714 19.1902 56.675 18.8955C56.5327 18.7583 56.42 18.5932 56.3439 18.4107C56.2678 18.2282 56.2299 18.032 56.2327 17.8342V12.3003C56.2327 11.8876 56.3813 11.5336 56.675 11.2398C56.8128 11.0974 56.9783 10.9847 57.1613 10.9087C57.3442 10.8326 57.5408 10.7948 57.739 10.7975C57.937 10.7948 58.1334 10.8326 58.3163 10.9087C58.4991 10.9848 58.6644 11.0975 58.802 11.2398C59.0975 11.5336 59.2453 11.8868 59.2453 12.3003V17.8342ZM93.4586 12.3991C93.4586 12.7811 93.3214 13.1089 93.046 13.3817C92.9181 13.5137 92.7645 13.618 92.5948 13.6884C92.425 13.7588 92.2427 13.7936 92.059 13.7909H90.0027C89.6181 13.7909 89.292 13.9255 89.0236 14.193C88.8928 14.3193 88.7895 14.4712 88.72 14.6392C88.6505 14.8072 88.6163 14.9877 88.6197 15.1695V17.9409C88.6197 18.3238 88.4833 18.6525 88.2088 18.9261C88.0813 19.0582 87.9281 19.1627 87.7586 19.2334C87.5892 19.3041 87.4071 19.3393 87.2235 19.337C86.8415 19.337 86.511 19.2006 86.2374 18.9261C86.1052 18.7991 86.0006 18.6462 85.9299 18.477C85.8592 18.3078 85.824 18.1259 85.8265 17.9426V15.1713C85.8182 14.6231 85.9225 14.0791 86.1331 13.5729C86.3436 13.0667 86.6558 12.6092 87.0504 12.2286C87.4333 11.8343 87.8928 11.5224 88.4007 11.3122C88.9086 11.1021 89.454 10.998 90.0036 11.0064H92.0581C92.2421 11.0037 92.4247 11.0388 92.5946 11.1095C92.7645 11.1802 92.9181 11.2849 93.046 11.4173C93.1788 11.5435 93.284 11.6959 93.3547 11.8649C93.4255 12.034 93.4603 12.2159 93.4569 12.3991H93.4586ZM80.2602 19.3362C79.0748 19.3362 77.9575 18.885 77.0763 17.9846C76.195 17.0841 75.8567 16.1023 75.8567 14.8321C75.8567 14.8321 75.771 10.7948 80.338 10.7948C83.9111 10.7948 84.9977 13.3039 84.9977 14.5436C84.9977 15.528 84.5475 15.8777 83.522 15.8777H78.955C78.955 15.8777 78.7801 16.9224 80.8783 16.9224H83.4835C83.642 16.9224 83.7989 16.9536 83.9452 17.0142C84.0916 17.0748 84.2246 17.1637 84.3366 17.2757C84.4487 17.3878 84.5375 17.5208 84.5982 17.6671C84.6588 17.8135 84.69 17.9704 84.69 18.1288C84.69 18.2873 84.6588 18.4441 84.5982 18.5905C84.5375 18.7369 84.4487 18.8699 84.3366 18.9819C84.2246 19.0939 84.0916 19.1828 83.9452 19.2434C83.7989 19.3041 83.642 19.3353 83.4835 19.3353H80.2664L80.2602 19.3362ZM78.9856 13.9727H81.9842C81.9842 12.9874 80.4928 12.9874 80.4928 12.9874C80.4928 12.9874 78.9856 12.9874 78.9856 13.9727ZM27.4798 10.425C26.547 10.5842 25.1954 10.418 24.4786 10.1191C25.9674 9.99666 26.9754 9.32 27.3635 8.40118C26.8268 8.73164 25.1605 9.10057 24.2425 8.74825L24.0956 8.13978C23.3962 5.56427 20.9947 3.48883 18.4813 3.73974L19.0976 3.51068C19.373 3.4119 20.9973 3.147 20.7412 2.57525C20.5252 2.06994 18.5407 2.95467 18.1674 3.07094C18.6605 2.89609 19.477 2.56738 19.5636 2C18.7915 2.11436 18.0709 2.45581 17.4934 2.9809C17.7015 2.75797 17.8579 2.48695 17.8912 2.19408C15.8752 3.48358 14.6976 6.08095 13.7455 8.60225C12.9972 7.87663 12.3328 7.30401 11.7383 6.98491C10.0702 6.09056 8.06647 5.156 4.94282 3.99152C4.85539 5.02924 5.45512 6.40879 7.21584 7.32586C6.83642 7.27341 6.14227 7.38881 5.588 7.52082C5.81356 8.70978 6.55229 9.68893 8.55342 10.161C7.63897 10.2222 7.16601 10.4233 6.7385 10.8779C7.15464 11.7058 8.17226 12.6788 9.99941 12.4778C7.96593 13.3555 9.16889 14.9798 10.8247 14.7377C8.00353 17.6559 3.55453 17.4478 1 14.9999C7.66869 24.0981 22.1679 20.38 24.3273 11.6166C25.9482 11.6297 26.8976 11.0554 27.4877 10.4224L27.4798 10.425Z" fill="#F5F5F5"/>
</svg>
