<svg width="352" height="227" viewBox="0 0 352 227" fill="none" xmlns="http://www.w3.org/2000/svg">
<path fill-rule="evenodd" clip-rule="evenodd" d="M134.26 31.4283C131.012 21.0484 126.194 13.7295 120.619 8.78825C114.147 3.05157 107.09 0.908666 101.428 0.57932C94.3032 0.1649 35.6373 0.69312 7.59452 0.999248C4.22006 1.03609 1.35225 3.47527 0.774343 6.80007C-0.771063 15.691 0.793168 29.8083 12.4898 39.0383C11.7691 46.2365 12.5278 52.8824 15.0152 58.7048C17.1905 63.7964 20.5604 67.9531 24.8808 71.1373C22.5715 78.7679 22.269 88.5227 28.6203 96.8969C36.6036 107.423 52.9363 112.77 79.7382 111.044C79.4249 121.187 80.8366 131.383 83.9878 141.186C90.3221 160.892 103.293 177.792 120.691 189.006C138.088 200.22 158.836 205.055 179.399 202.687C191.721 201.268 203.52 197.315 214.095 191.173C226.406 214.037 239.495 224.765 252.618 226.335C263.465 227.632 272.166 222.45 277.888 216.541C283.109 218.791 288.704 219.669 294.513 219.005C301.096 218.252 307.571 215.564 313.813 211.249C328.238 216.875 341.841 211.266 349.154 205.466C351.897 203.291 352.611 199.424 350.826 196.413C336.314 171.923 305.847 120.74 301.709 114.763C298.417 110.007 292.782 105.026 284.278 102.332C277.188 100.085 268.431 99.5275 257.8 101.643C256.23 90.2048 252.455 79.1376 246.645 69.0738C244.62 65.5676 240.024 64.7502 236.696 67.0548C233.367 69.3593 232.572 73.9115 234.539 77.4499C241.706 90.3357 244.931 105.107 243.719 119.911C242.307 137.16 234.958 153.386 222.924 165.824C210.889 178.261 194.915 186.142 177.722 188.122C160.529 190.102 143.181 186.059 128.634 176.683C114.088 167.306 103.242 153.176 97.9461 136.699C92.6499 120.223 93.2305 102.42 99.589 86.3234C105.947 70.2271 117.69 56.8335 132.817 48.4246C145.799 41.2078 160.585 38.0459 175.28 39.2517C179.315 39.5828 183.133 36.9789 183.857 32.9955C184.581 29.0121 181.939 25.164 177.91 24.7681C163.022 23.3054 148.013 25.6013 134.26 31.4283ZM121.603 38.0282C118.947 28.1683 114.988 22.5053 111.333 19.2649C107.442 15.8162 103.46 14.7212 100.615 14.5557C94.5958 14.2056 44.349 14.6183 14.3487 14.9283C14.8456 20.2752 17.3719 26.0643 23.5457 29.6643C28.8407 32.752 37.7458 34.8875 52.3968 32.9844C56.2306 32.4863 59.7422 35.1905 60.2402 39.0243C60.7382 42.8581 58.034 46.3697 54.2003 46.8677C43.0551 48.3154 33.8202 47.8332 26.2752 45.7851C26.4368 48.7038 27.0165 51.161 27.8896 53.2047C29.4825 56.9334 32.2807 59.8394 36.5676 61.8694C42.1259 64.5015 50.3255 65.6944 61.3297 64.5542C65.1751 64.1558 68.6154 66.9501 69.0139 70.7955C69.4123 74.6409 66.618 78.0812 62.7726 78.4797C53.5366 79.4366 45.0724 79.0644 37.7629 77.124C36.9196 81.2124 37.3962 85.3004 39.775 88.4368C43.3809 93.1912 53.6328 98.9309 80.2672 96.9749C80.6139 96.9494 80.9565 96.9497 81.2932 96.974C82.3368 91.5264 83.8907 86.1565 85.9527 80.9367C92.9741 63.1623 105.485 48.1434 121.603 38.0282ZM258.609 115.786C258.569 117.558 258.477 119.333 258.332 121.107C256.643 141.737 247.853 161.143 233.46 176.019C231.002 178.56 228.406 180.942 225.688 183.157C237.524 205.721 247.856 211.665 254.281 212.434C258.631 212.954 262.721 211.26 266.043 208.493C260.494 203.159 255.728 196.051 251.747 187.593C250.101 184.095 251.603 179.925 255.101 178.279C258.599 176.633 262.769 178.134 264.415 181.632C269.162 191.719 274.577 198.265 279.982 201.815C284.177 204.57 288.469 205.605 292.922 205.096C295.329 204.82 297.934 204.074 300.718 202.743C294.953 197.256 289.685 189.535 285.151 179.189C283.6 175.648 285.212 171.52 288.753 169.968C292.294 168.416 296.423 170.029 297.974 173.57C303.942 187.19 310.59 193.893 316.309 196.999C323.106 200.689 329.974 199.917 335.256 197.604C319.7 171.391 293.685 127.767 290.199 122.732C288.551 120.352 285.404 117.374 280.049 115.678C275.255 114.159 268.319 113.553 258.609 115.786ZM202.585 66.9778C204.004 64.5853 203.215 61.4953 200.823 60.076C198.43 58.6567 195.34 59.4457 193.921 61.8382L188.769 70.5233C185.981 69.1032 183.134 68.0846 180.293 67.4845C170.53 65.4221 160.693 68.3911 155.074 77.162C148.841 86.8911 147.695 95.3695 150.472 102.913C152.606 108.714 156.867 113.316 161.132 117.112L146.015 142.593C140.955 138.687 136.576 133.939 133.88 129.745C132.375 127.405 129.259 126.728 126.919 128.232C124.579 129.736 123.902 132.853 125.406 135.193C128.831 140.521 134.354 146.494 140.843 151.312L136.288 158.99C134.869 161.382 135.658 164.472 138.051 165.892C140.443 167.311 143.533 166.522 144.952 164.13L149.409 156.618C150.555 157.189 151.715 157.71 152.882 158.174C158.657 160.469 165.102 161.543 171.321 159.756C177.698 157.923 183.033 153.315 186.853 145.841C188.819 141.995 189.567 138.206 189.072 134.496C188.584 130.84 186.95 127.724 184.939 125.074C182.129 121.374 178.009 117.948 174.182 114.857L191.885 85.0146C194.18 87.1883 196.392 89.8231 198.418 92.9463C199.932 95.2801 203.051 95.9449 205.385 94.4311C207.719 92.9172 208.383 89.7981 206.87 87.4643C203.981 83.0112 200.675 79.2351 197.126 76.1798L202.585 66.9778ZM178.211 77.3406C179.953 77.7087 181.771 78.3287 183.613 79.2138L166.386 108.255C163.323 105.346 161.061 102.519 159.926 99.4342C158.517 95.606 158.537 90.4311 163.557 82.596C166.503 77.9965 171.743 75.9744 178.211 77.3406ZM154.566 147.924L168.981 123.624C172.252 126.285 174.98 128.617 176.916 131.166C178.232 132.9 178.897 134.41 179.087 135.829C179.269 137.194 179.073 138.929 177.883 141.257C175.079 146.744 171.746 149.152 168.539 150.074C165.174 151.041 161.117 150.606 156.602 148.812C155.922 148.542 155.243 148.245 154.566 147.924Z" fill="url(#paint0_linear_248_208)"/>
<defs>
<linearGradient id="paint0_linear_248_208" x1="0.276367" y1="113.481" x2="348.181" y2="113.481" gradientUnits="userSpaceOnUse">
<stop stop-color="#FF7070"/>
<stop offset="0.159375" stop-color="#E02222" stop-opacity="0.840625"/>
<stop offset="0.555208" stop-color="#FF7F00"/>
<stop offset="1" stop-color="#9747FF"/>
</linearGradient>
</defs>
</svg>
