<svg width="335" height="176" viewBox="0 0 335 176" fill="none" xmlns="http://www.w3.org/2000/svg">
<path d="M135.973 26.6167H69.6792C57.9963 26.6167 48.5254 36.0876 48.5254 47.7705V106.774C48.5254 118.457 58.0248 127.928 69.7077 127.928C76.0253 127.928 82.0256 130.751 86.0441 135.626L106.552 160.505C109.662 164.278 114.082 166.738 118.928 167.393C126.107 168.363 133.23 165.253 137.399 159.328L142.083 152.67L143.551 154.317C146.609 157.748 150.753 160.023 155.289 160.761C164.312 162.23 173.185 157.406 176.858 149.034L177.228 148.19L179.955 150.867C183.294 154.146 187.788 155.983 192.468 155.983C200.446 155.983 207.456 150.693 209.645 143.021L211.727 135.721L219.554 143.933C222.172 146.679 225.689 148.393 229.465 148.761L229.966 148.81C238.266 149.62 245.685 143.634 246.648 135.351C247.192 130.667 245.546 125.993 242.186 122.684L150.817 32.6988C146.859 28.8013 141.528 26.6167 135.973 26.6167Z" fill="#0D0D0D"/>
<path d="M191.92 114.939L211.727 135.721M211.727 135.721L219.554 143.933C222.172 146.679 225.689 148.393 229.465 148.761L229.966 148.81C238.266 149.62 245.685 143.634 246.648 135.351V135.351C247.192 130.667 245.546 125.993 242.186 122.684L150.817 32.6988C146.859 28.8013 141.528 26.6167 135.973 26.6167H69.6792C57.9963 26.6167 48.5254 36.0876 48.5254 47.7705V106.774C48.5254 118.457 58.0248 127.928 69.7077 127.928V127.928C76.0253 127.928 82.0256 130.751 86.0441 135.626L106.552 160.505C109.662 164.278 114.082 166.738 118.928 167.393V167.393C126.107 168.363 133.23 165.253 137.399 159.328L142.083 152.67M211.727 135.721L209.645 143.021C207.456 150.693 200.446 155.983 192.468 155.983V155.983C187.788 155.983 183.294 154.146 179.955 150.867L177.228 148.19M156.591 127.928L177.228 148.19M177.228 148.19L176.858 149.034C173.185 157.406 164.312 162.23 155.289 160.761V160.761C150.753 160.023 146.609 157.748 143.551 154.317L142.083 152.67M126.977 135.721L142.083 152.67" stroke="url(#paint0_linear_248_66)" stroke-width="14.9321" stroke-linecap="round" stroke-linejoin="round"/>
<path d="M8 143.513V8.43164H54.759V143.513H8Z" fill="#0D0D0D" stroke="url(#paint1_linear_248_66)" stroke-width="14.9321" stroke-linecap="round" stroke-linejoin="round"/>
<path d="M195.19 22.9773H257.689C284.491 22.9773 306.218 44.7046 306.218 71.5066V74.2004C306.218 101.002 284.491 122.73 257.689 122.73H246.99C243.998 122.73 241.131 121.531 239.029 119.403L201.27 81.1662C196.966 81.1662 193.477 77.6771 193.477 73.3731V72.8733C193.477 65.2443 184.045 61.6628 178.981 67.3693L164.49 83.7005C162.062 86.4367 158.798 88.2933 155.205 88.9813L151.76 89.6411C143.26 91.2686 135.065 85.6513 133.516 77.1369C132.666 72.4617 133.998 67.6544 137.133 64.0832L158.718 39.4925C167.932 28.9954 181.223 22.9773 195.19 22.9773Z" fill="#0D0D0D"/>
<path d="M237.119 81.1662H201.27M201.27 81.1662V81.1662C196.966 81.1662 193.477 77.6771 193.477 73.3731V72.8733C193.477 65.2443 184.045 61.6628 178.981 67.3693L164.49 83.7005C162.062 86.4367 158.798 88.2933 155.205 88.9813L151.76 89.641C143.26 91.2686 135.065 85.6513 133.516 77.1369V77.1369C132.666 72.4617 133.998 67.6544 137.133 64.0832L158.718 39.4925C167.932 28.9954 181.223 22.9773 195.19 22.9773H257.689C284.491 22.9773 306.218 44.7046 306.218 71.5066V74.2004C306.218 101.002 284.491 122.73 257.689 122.73H246.99V122.73C243.998 122.73 241.131 121.531 239.029 119.403L201.27 81.1662Z" stroke="url(#paint2_linear_248_66)" stroke-width="14.9321" stroke-linecap="round" stroke-linejoin="round"/>
<path d="M280.241 143.513V8.43164H327V143.513H280.241Z" fill="#0D0D0D" stroke="url(#paint3_linear_248_66)" stroke-width="14.9321" stroke-linecap="round" stroke-linejoin="round"/>
<defs>
<linearGradient id="paint0_linear_248_66" x1="48.5254" y1="97.7943" x2="245.459" y2="97.7943" gradientUnits="userSpaceOnUse">
<stop stop-color="#FF7070"/>
<stop offset="0.159375" stop-color="#E02222" stop-opacity="0.840625"/>
<stop offset="0.555208" stop-color="#FF7F00"/>
<stop offset="1" stop-color="#9747FF"/>
</linearGradient>
<linearGradient id="paint1_linear_248_66" x1="8" y1="75.9725" x2="54.2769" y2="75.9725" gradientUnits="userSpaceOnUse">
<stop stop-color="#FF7070"/>
<stop offset="0.159375" stop-color="#E02222" stop-opacity="0.840625"/>
<stop offset="0.555208" stop-color="#FF7F00"/>
<stop offset="1" stop-color="#9747FF"/>
</linearGradient>
<linearGradient id="paint2_linear_248_66" x1="132.171" y1="72.8536" x2="304.424" y2="72.8536" gradientUnits="userSpaceOnUse">
<stop stop-color="#FF7070"/>
<stop offset="0.159375" stop-color="#E02222" stop-opacity="0.840625"/>
<stop offset="0.555208" stop-color="#FF7F00"/>
<stop offset="1" stop-color="#9747FF"/>
</linearGradient>
<linearGradient id="paint3_linear_248_66" x1="280.241" y1="75.9725" x2="326.518" y2="75.9725" gradientUnits="userSpaceOnUse">
<stop stop-color="#FF7070"/>
<stop offset="0.159375" stop-color="#E02222" stop-opacity="0.840625"/>
<stop offset="0.555208" stop-color="#FF7F00"/>
<stop offset="1" stop-color="#9747FF"/>
</linearGradient>
</defs>
</svg>
